<svg width="21" height="22" viewBox="0 0 21 22" fill="none" xmlns="http://www.w3.org/2000/svg">
<path d="M14.372 11.5251L5.44678 2.66548H20.0159C20.5409 2.59985 21.0003 2.99361 21.0003 3.51863C21.0003 3.51863 21.0003 3.51863 21.0003 3.58425V4.30615C21.0003 4.63428 20.869 4.96241 20.6065 5.22492L14.372 11.5251Z" fill="#1E1D1D"/>
<path d="M20.6724 19.6628L1.37816 0.36853L0.39376 1.2873L1.77192 2.66546H0.984399C0.459386 2.59983 0 2.99359 0 3.51861C0 3.51861 0 3.51861 0 3.58423V4.30613C0 4.63426 0.131253 4.96239 0.39376 5.2249L7.87519 12.772V19.4002L13.1253 21.6316V14.0189L19.7536 20.6472L20.6724 19.6628Z" fill="#1E1D1D"/>
</svg>
