<svg width="24" height="24" viewBox="0 0 24 24" fill="none" xmlns="http://www.w3.org/2000/svg">
<g clip-path="url(#clip0_3007_11333)">
<path d="M11.9738 0.5C12.1791 0.5 12.3614 0.571318 12.5277 0.670361L13.843 1.44698C15.1586 2.22234 16.4784 2.99206 17.8003 3.75589C17.9213 3.82599 18.0355 3.91177 18.1277 4.02333L18.2115 4.1442L18.2762 4.27744C18.3288 4.4141 18.347 4.5583 18.3457 4.70477C18.3293 6.43718 18.3328 8.15855 18.3209 9.89649C18.321 9.91045 18.3221 9.92068 18.3228 9.92789C18.3284 9.93187 18.3363 9.93753 18.3476 9.94407L20.9001 11.4335C21.7488 11.9299 22.5971 12.4261 23.4508 12.9202C23.6045 13.009 23.7482 13.1253 23.8467 13.2932C23.9463 13.4634 23.9791 13.6506 23.9742 13.8405C23.9658 14.1752 23.9663 14.5112 23.9666 14.8531C23.9669 15.1933 23.967 15.5392 23.9571 15.8858V15.9L23.9552 15.9162C23.9455 16.005 23.9224 16.0914 23.8876 16.1722L23.8486 16.2512C23.7914 16.3549 23.7139 16.4473 23.6211 16.5206L23.6116 16.5272L23.603 16.5339L23.6011 16.5348L23.6002 16.5329C23.5217 16.588 23.4401 16.6124 23.3822 16.6224C23.3496 16.628 23.3163 16.631 23.2852 16.6319L23.1967 16.6291C23.098 16.6209 22.9482 16.5899 22.8283 16.4939C22.7209 16.4079 22.6541 16.293 22.6142 16.1989C22.5731 16.1018 22.5454 15.9906 22.5419 15.881V15.8791C22.533 15.5567 22.5315 15.233 22.5323 14.9045L22.3553 15.0083L22.3544 15.0073C21.0219 15.7909 19.6899 16.5745 18.359 17.3562C18.3547 17.3587 18.3508 17.3608 18.3476 17.3629V17.3705C18.3517 18.7604 18.3478 20.1508 18.3447 21.5391C19.7358 20.7202 21.1274 19.9014 22.519 19.0836L22.52 19.0826C22.525 19.0797 22.5296 19.0774 22.5333 19.075L22.5276 18.3308C22.5285 18.0832 22.5315 17.8371 22.5333 17.5941C22.5337 17.4048 22.5792 17.2052 22.7084 17.0459L22.7627 16.986C22.8959 16.8568 23.0714 16.7951 23.2538 16.7975L23.3318 16.8023C23.5113 16.8235 23.675 16.9092 23.7915 17.0573C23.917 17.2171 23.9614 17.4156 23.9618 17.6036V19.3967C23.9618 19.5529 23.9293 19.708 23.8448 19.8497C23.761 19.9901 23.6422 20.0905 23.5155 20.1648C21.6986 21.23 19.8846 22.2986 18.0744 23.3702C17.9357 23.4522 17.78 23.5049 17.6081 23.4996C17.4823 23.4957 17.368 23.4612 17.2654 23.413L17.2588 23.4102L17.2521 23.4064L17.1779 23.3674L17.1665 23.3616C15.446 22.3501 13.7127 21.3393 11.9928 20.3237L11.989 20.3208C11.9868 20.3195 11.9843 20.3191 11.9824 20.318C11.9798 20.3195 11.9768 20.3209 11.9738 20.3228L11.7758 20.4474L11.772 20.4436C11.4631 20.6319 11.1494 20.8135 10.8488 20.988C10.6883 21.082 10.496 21.1464 10.294 21.1194C10.0757 21.0897 9.90764 20.961 9.80288 20.7901C9.69366 20.6112 9.65596 20.3941 9.7353 20.1809C9.80905 19.9836 9.96351 19.8409 10.1284 19.7431C10.5111 19.5179 10.8853 19.3027 11.2524 19.075C11.264 17.6847 11.2678 16.2942 11.2724 14.9026C9.88135 15.7218 8.49082 16.543 7.10185 17.3657C7.09137 18.7549 7.08919 20.1438 7.08662 21.5343C7.53686 21.269 7.98744 21.0043 8.43714 20.7387C8.47637 20.7155 8.54687 20.6718 8.6113 20.6378L8.61606 20.6349L8.61892 20.634L8.62939 20.6292L8.64081 20.6245L8.72456 20.5902L8.73503 20.5864L8.74645 20.5826C8.84374 20.5524 8.94745 20.54 9.05101 20.5512L9.15475 20.5702C9.34308 20.6202 9.49284 20.7459 9.58493 20.9128L9.64013 21.0375C9.68364 21.1655 9.69176 21.3043 9.65631 21.4401C9.60941 21.6192 9.49485 21.7668 9.34509 21.8684L9.34319 21.8693C9.1684 21.9859 8.96851 22.0931 8.81688 22.1824L8.81783 22.1834C8.15607 22.5742 7.49808 22.9563 6.84488 23.3502C6.70926 23.4322 6.55321 23.4934 6.37568 23.4958C6.24213 23.4976 6.11805 23.4656 6.0045 23.414L5.98927 23.4064L5.90647 23.3626L5.90076 23.3597L5.8941 23.3559C4.99348 22.825 4.09239 22.2973 3.19117 21.7694L0.487289 20.1828L0.486337 20.1819C0.392012 20.126 0.316816 20.0573 0.261727 20.0039L0.125629 19.8707L0.0980288 19.845L0.00190347 19.7584L0 13.4093L0.0913666 13.3227L0.117063 13.298C0.164084 13.2528 0.187488 13.2237 0.259824 13.1486C0.303467 13.1032 0.361429 13.0457 0.432088 12.9944L0.437798 12.9896L0.444461 12.9858L0.496806 12.9525L0.506323 12.9458L3.03033 11.4554C3.87259 10.9598 4.71589 10.4656 5.56004 9.97263C5.60494 9.94653 5.62018 9.92969 5.62381 9.92504L5.62856 9.90981C5.63126 9.89616 5.63348 9.87189 5.63332 9.83272C5.62781 8.11995 5.64491 6.46208 5.63713 4.75616V4.75426C5.63717 4.55556 5.66584 4.35387 5.76752 4.16704L5.85508 4.03475C5.95183 3.91127 6.07555 3.81453 6.21483 3.734C7.95688 2.7269 9.6913 1.70509 11.418 0.670361L11.4294 0.663699L11.5331 0.608498L11.5398 0.604691L11.5465 0.601836C11.6777 0.540121 11.8201 0.500126 11.9738 0.5ZM12.6838 19.0703L16.9123 21.5419C16.9147 20.1485 16.9151 18.7537 16.9228 17.359C16.2525 16.9696 15.5828 16.5783 14.9137 16.1856L12.7047 14.8941C12.6991 16.2853 12.6944 17.6778 12.6838 19.0703ZM1.43427 19.0703C2.83738 19.8974 4.24307 20.7205 5.65045 21.541C5.65466 20.1478 5.6593 18.756 5.65521 17.3648C4.24873 16.5341 2.83934 15.7086 1.42856 14.8864C1.42868 16.2984 1.42865 17.6848 1.43427 19.0703ZM2.14997 13.6397C3.55923 14.4648 4.96742 15.2917 6.37568 16.118L10.5719 13.6435L6.34808 11.1671C4.94943 11.9945 3.54939 12.818 2.14997 13.6397ZM15.5752 12.3662L13.5308 13.5702L13.5318 13.5711C13.493 13.5942 13.4536 13.6165 13.4147 13.6397L17.6357 16.1161C19.0337 15.2921 20.4321 14.4683 21.8309 13.6454C20.4232 12.8213 19.0148 11.9986 17.6052 11.1785L15.5752 12.3662ZM7.05046 9.91933C7.05165 9.92003 7.05302 9.9205 7.05427 9.92123L11.2838 12.3919C11.2861 10.9989 11.2854 9.60344 11.2933 8.20906L11.2676 8.19383L11.2666 8.19288C9.86652 7.37676 8.46633 6.55922 7.06664 5.74026C7.06261 7.13222 7.06074 8.52598 7.05046 9.91933ZM7.78329 4.48777C9.20972 5.32228 10.6098 6.14261 12.0119 6.95657C12.2342 6.8364 12.4105 6.72134 12.6667 6.57683L12.6743 6.57207L12.6819 6.56827L12.7713 6.52449L12.7809 6.51973L12.7904 6.51592C12.9186 6.46384 13.0634 6.4381 13.212 6.46262C13.4212 6.49736 13.5854 6.6236 13.6879 6.79478L13.6955 6.8081L13.7174 6.84998L13.724 6.8614C13.8003 7.0224 13.8186 7.20655 13.7564 7.38581C13.6884 7.58111 13.5412 7.72522 13.3785 7.82361C13.1678 7.95088 12.9483 8.08761 12.7171 8.21001C12.7203 9.59982 12.7181 10.9897 12.7152 12.3786C14.1067 11.5599 15.4979 10.7402 16.8866 9.91647C16.8929 9.14813 16.8973 8.37932 16.9 7.61042L16.9038 5.74597C16.2309 6.14252 15.5572 6.54189 14.8813 6.93564C14.6941 7.0449 14.4663 7.10081 14.2427 7.03652C14.0069 6.96852 13.8443 6.78555 13.7764 6.5597C13.7164 6.35863 13.7364 6.15954 13.8411 5.98866C13.933 5.83903 14.0695 5.7437 14.1723 5.68315L14.1742 5.6822C14.8519 5.28876 15.5275 4.88996 16.2023 4.49063C14.7934 3.66545 13.3848 2.8399 11.9766 2.01421L7.78329 4.48777Z" fill="#44424B"/>
</g>
<defs>
<clipPath id="clip0_3007_11333">
<rect width="24" height="24" fill="white"/>
</clipPath>
</defs>
</svg>
