<svg width="24" height="24" viewBox="0 0 24 24" fill="none" xmlns="http://www.w3.org/2000/svg">
<path d="M2.90909 5.12889L4.07273 4L19.2727 18.8622L18.1182 20L15.3182 17.2622C14.2727 17.6 13.1636 17.7778 12 17.7778C7.45455 17.7778 3.57273 15.0133 2 11.1111C2.62727 9.54667 3.62727 8.16889 4.9 7.07556L2.90909 5.12889ZM12 8.44444C12.7233 8.44444 13.417 8.7254 13.9285 9.22549C14.4399 9.72559 14.7273 10.4039 14.7273 11.1111C14.7277 11.4138 14.6755 11.7144 14.5727 12L11.0909 8.59556C11.383 8.4951 11.6904 8.444 12 8.44444ZM12 4.44444C16.5455 4.44444 20.4273 7.20889 22 11.1111C21.2576 12.9537 19.9969 14.5532 18.3636 15.7244L17.0727 14.4533C18.33 13.6031 19.3439 12.4525 20.0182 11.1111C19.2833 9.64432 18.1423 8.40856 16.7249 7.54431C15.3074 6.68007 13.6704 6.22201 12 6.22222C11.0091 6.22222 10.0364 6.38222 9.12727 6.66667L7.72727 5.30667C9.03636 4.75556 10.4818 4.44444 12 4.44444ZM3.98182 11.1111C4.71668 12.5779 5.85769 13.8137 7.27512 14.6779C8.69256 15.5422 10.3296 16.0002 12 16C12.6273 16 13.2455 15.9378 13.8182 15.8133L11.7455 13.7778C11.1129 13.7115 10.5226 13.4354 10.0727 12.9956C9.62284 12.5557 9.34053 11.9785 9.27273 11.36L6.18182 8.32889C5.28182 9.08444 4.52727 10.0267 3.98182 11.1111Z" fill="#44424B"/>
</svg>
