<svg width="24" height="24" viewBox="0 0 24 24" fill="none" xmlns="http://www.w3.org/2000/svg">
<path d="M22.452 12.5791C22.8065 12.5667 23.1541 12.6793 23.4311 12.8966C23.7081 13.1139 23.8964 13.422 23.9618 13.764C24.0422 14.1104 23.9948 14.4737 23.828 14.7891C23.6611 15.1045 23.3853 15.3515 23.0501 15.4866V22.378C23.0694 22.5948 23.04 22.813 22.964 23.0176C22.8881 23.2221 22.7672 23.408 22.6102 23.5619C22.4534 23.7156 22.2644 23.8338 22.0561 23.9083C21.8476 23.9827 21.6247 24.0121 21.4037 23.9932H14.8544C14.633 24.0141 14.4095 23.9866 14.2002 23.9129C13.9909 23.8392 13.8005 23.7207 13.6432 23.5665C13.4858 23.4122 13.3647 23.2248 13.2894 23.0194C13.2143 22.8141 13.1858 22.5951 13.207 22.378V15.5351C12.9321 15.4262 12.6969 15.2382 12.5322 14.9964C12.4047 14.8217 12.3154 14.623 12.2701 14.4129C12.2247 14.2025 12.2246 13.9847 12.2692 13.7742C12.2971 13.613 12.354 13.4577 12.4386 13.3167C12.4672 13.2673 12.5007 13.2204 12.5378 13.1767C12.6797 12.9887 12.8651 12.8361 13.0788 12.7322C13.2926 12.6283 13.5291 12.5759 13.7677 12.5791H22.452ZM10.2053 12.5745C10.4509 12.5665 10.6949 12.6171 10.9157 12.7229C11.1367 12.8289 11.3282 12.987 11.4726 13.1823C11.5117 13.2284 11.5453 13.2795 11.5718 13.3335C11.6585 13.4716 11.7167 13.6252 11.7422 13.7854C11.7836 13.9919 11.7827 14.2049 11.7394 14.411C11.696 14.6171 11.6108 14.8126 11.4895 14.9861C11.3176 15.2082 11.0879 15.3808 10.8249 15.4866V22.3238C10.8432 22.5404 10.8131 22.7584 10.7369 22.9625C10.6606 23.1666 10.5398 23.3521 10.3831 23.5059C10.2264 23.6595 10.0379 23.7784 9.82992 23.8532C9.62186 23.928 9.39929 23.957 9.17845 23.9391H2.62918C2.40769 23.9599 2.18432 23.9325 1.97491 23.8588C1.76552 23.785 1.57533 23.6667 1.41798 23.5124C1.26061 23.3581 1.13942 23.1716 1.06417 22.9662C0.98892 22.7608 0.961485 22.5411 0.982736 22.3238V15.5024C0.638389 15.3708 0.352926 15.1223 0.179638 14.8022C0.00655649 14.4822 -0.0434379 14.1116 0.0383001 13.7584C0.10585 13.4176 0.29459 13.1116 0.570891 12.8947C0.847417 12.6777 1.19411 12.5642 1.54809 12.5745H10.2053ZM2.56928 15.6108C2.32774 15.6108 2.32685 15.6105 2.32685 15.8582L2.34931 15.8638C2.34565 18.0172 2.3437 20.1724 2.3437 22.3294C2.34918 22.5986 2.35473 22.5983 2.62356 22.5983H9.15037C9.44666 22.5983 9.44709 22.5987 9.44709 22.2977V15.8796C9.44709 15.6105 9.43588 15.6108 9.19436 15.6108H2.56928ZM14.816 15.621C14.5526 15.621 14.5521 15.6213 14.5521 15.8796V22.3406C14.5521 22.5933 14.5637 22.6037 14.816 22.5983H21.4037C21.6613 22.5983 21.6611 22.5879 21.6611 22.3406V15.8796C21.6611 15.6214 21.6504 15.621 21.4037 15.621H14.816ZM13.6853 13.9385C13.6682 13.9466 13.6528 13.958 13.6404 13.9722C13.6281 13.9863 13.6188 14.0029 13.6133 14.0207C13.6078 14.0385 13.6063 14.0573 13.6086 14.0758C13.6086 14.2319 13.6577 14.2429 13.7181 14.2644C13.8093 14.2729 13.9011 14.2729 13.9924 14.2644H22.2761C22.3491 14.2699 22.4229 14.2699 22.496 14.2644C22.5782 14.2536 22.6168 14.2319 22.6168 14.1458C22.6235 14.1177 22.6243 14.0885 22.6196 14.0599C22.6149 14.0315 22.605 14.0042 22.5896 13.9796C22.5487 13.9485 22.4992 13.9299 22.4483 13.9255H13.7396C13.7208 13.9261 13.7024 13.9306 13.6853 13.9385ZM1.5537 13.9199C1.42757 13.9199 1.38343 13.9576 1.38335 14.0758L1.40488 14.0814C1.40488 14.2268 1.45464 14.2534 1.54247 14.2588H10.062C10.1278 14.2642 10.1938 14.2642 10.2595 14.2588C10.3363 14.2534 10.3971 14.2377 10.3971 14.1141C10.4021 14.0676 10.3918 14.0207 10.3691 13.9796C10.3263 13.9459 10.275 13.925 10.2212 13.9199H1.5537ZM16.3034 1.00443C16.6826 0.975594 17.0591 1.08843 17.3573 1.32001C17.6554 1.55158 17.854 1.88511 17.9124 2.25367C17.9811 2.59837 17.9232 2.9558 17.7495 3.26297C17.5758 3.57028 17.297 3.80797 16.9623 3.93335V10.8341C16.9547 11.1086 16.8879 11.3791 16.7648 11.6268C16.6156 11.8803 16.3943 12.0859 16.1283 12.2187C15.8624 12.3515 15.563 12.4054 15.2663 12.3747H8.73853C8.45046 12.3974 8.16195 12.339 7.90641 12.2066C7.65077 12.0741 7.43836 11.8732 7.2952 11.6268C7.158 11.36 7.09024 11.0637 7.0977 10.765V3.93801C6.77369 3.82187 6.49953 3.60053 6.32175 3.31059C6.14416 3.02082 6.07333 2.68007 6.1205 2.34517C6.14845 2.03031 6.27937 1.73225 6.49397 1.49647C6.70869 1.26066 6.9961 1.09891 7.31205 1.03617C7.44962 1.01326 7.58904 1.00297 7.72857 1.00443H16.3034ZM8.67862 4.04072C8.42076 4.04072 8.42028 4.04066 8.42028 4.30401V6.45799L8.41467 8.58956V10.7435C8.41467 11.0234 8.41511 11.0236 8.70577 11.0236H15.255C15.535 11.0236 15.5349 11.0124 15.5349 10.7594V4.29935C15.5349 4.04099 15.5241 4.04072 15.2663 4.04072H8.67862ZM7.63591 2.34984C7.52611 2.37138 7.4927 2.40425 7.4927 2.47962C7.4744 2.53186 7.47433 2.58892 7.4927 2.64115C7.50383 2.65736 7.55411 2.69437 7.72389 2.69437H16.2154C16.4459 2.69437 16.4737 2.64578 16.4737 2.57579C16.4846 2.55132 16.4906 2.525 16.4906 2.4983C16.4906 2.47142 16.4848 2.44447 16.4737 2.41987C16.4428 2.39429 16.4065 2.37491 16.368 2.36291C16.3296 2.35104 16.2892 2.34646 16.2491 2.34984H7.63591Z" fill="#44424B"/>
</svg>
