<svg width="24" height="24" viewBox="0 0 24 24" fill="none" xmlns="http://www.w3.org/2000/svg">
<path d="M9.52441 18.3632L12 20.8378L14.4746 18.3632L12 15.8886L9.52441 18.3632ZM5.76953 7.96967C6.07824 8.00031 6.36839 8.13722 6.58984 8.35834H6.59082L9.27734 11.0458L9.36719 11.1454C9.56361 11.3855 9.67283 11.687 9.67285 11.9999C9.67285 12.3131 9.56387 12.6152 9.36719 12.8554L9.27734 12.954L6.59082 15.6415H6.58984C6.33672 15.8943 5.99347 16.0361 5.63574 16.0361C5.32291 16.036 5.02128 15.9278 4.78125 15.7314L4.68164 15.6415L1.99512 12.954H1.99414C1.7731 12.7327 1.63715 12.4423 1.60645 12.1337L1.59961 11.9999L1.60645 11.8671C1.637 11.5582 1.77286 11.2674 1.99414 11.0458H1.99512L4.68164 8.35834C4.93469 8.10561 5.27811 7.9639 5.63574 7.96381L5.76953 7.96967ZM18.4971 7.96967C18.7617 7.99585 19.0129 8.10012 19.2188 8.26849L19.3184 8.35834L22.0059 11.0458L22.0957 11.1454C22.292 11.3855 22.4004 11.6871 22.4004 11.9999C22.4004 12.313 22.2923 12.6153 22.0957 12.8554L22.0059 12.954L19.3184 15.6415C19.0653 15.8943 18.7219 16.036 18.3643 16.0361C18.0512 16.0361 17.7489 15.928 17.5088 15.7314L17.4102 15.6415L14.7227 12.954C14.4698 12.7009 14.3271 12.3577 14.3271 11.9999C14.3272 11.6422 14.4699 11.2989 14.7227 11.0458L17.4102 8.35834L17.5088 8.26849C17.7489 8.07194 18.0512 7.96381 18.3643 7.96381L18.4971 7.96967ZM3.16113 11.9999L5.63574 14.4736L8.11035 11.9999L5.63574 9.52533L3.16113 11.9999ZM15.8896 11.9999L18.3633 14.4736L20.8379 11.9999L18.3633 9.52533L15.8896 11.9999ZM12.1338 1.60638C12.3985 1.63273 12.6497 1.73663 12.8555 1.90521L12.9541 1.99408V1.99506L15.6416 4.68158C15.8943 4.93462 16.036 5.27805 16.0361 5.63568C16.0361 5.94871 15.928 6.25101 15.7314 6.49115L15.6416 6.58978L12.9541 9.27826C12.701 9.53107 12.3578 9.67377 12 9.67377C11.6871 9.67375 11.3856 9.56453 11.1455 9.3681L11.0459 9.27826L8.3584 6.58978C8.13728 6.36833 8.00037 6.07818 7.96973 5.76947L7.96387 5.63568L7.96973 5.50287C8.00032 5.19399 8.13714 4.90312 8.3584 4.68158L11.0459 1.99506V1.99408C11.299 1.74132 11.6423 1.59957 12 1.59955L12.1338 1.60638ZM9.52539 5.63568L12 8.11029L14.4746 5.63568L12 3.16107L9.52539 5.63568ZM16.0371 18.3632C16.0371 18.5406 16.0025 18.7169 15.9346 18.8808C15.8667 19.0445 15.7669 19.193 15.6416 19.3183L12.9541 22.0058C12.701 22.2586 12.3577 22.4003 12 22.4003C11.6872 22.4003 11.3856 22.2919 11.1455 22.0956L11.0459 22.0058L8.3584 19.3183V19.3173C8.23344 19.1922 8.13416 19.0441 8.06641 18.8808C7.99847 18.7169 7.96289 18.5406 7.96289 18.3632C7.96293 18.1859 7.99851 18.0104 8.06641 17.8466L8.12305 17.7265C8.18558 17.6097 8.26528 17.5021 8.35938 17.4081L11.0459 14.7216L11.1455 14.6318C11.3856 14.4354 11.6871 14.3261 12 14.3261C12.3131 14.3261 12.6153 14.4351 12.8555 14.6318L12.9541 14.7216L15.6406 17.4081H15.6416C15.7356 17.5021 15.8144 17.6097 15.877 17.7265L15.9346 17.8466L15.9785 17.9716C16.017 18.0984 16.0371 18.2303 16.0371 18.3632Z" fill="#44424B"/>
</svg>
