<svg width="16" height="16" viewBox="0 0 16 16" fill="none" xmlns="http://www.w3.org/2000/svg">
<path d="M12.6667 13.9998H5.33334V4.6665H12.6667M12.6667 3.33317H5.33334C4.97972 3.33317 4.64058 3.47365 4.39053 3.72369C4.14049 3.97374 4.00001 4.31288 4.00001 4.6665V13.9998C4.00001 14.3535 4.14049 14.6926 4.39053 14.9426C4.64058 15.1927 4.97972 15.3332 5.33334 15.3332H12.6667C13.0203 15.3332 13.3594 15.1927 13.6095 14.9426C13.8595 14.6926 14 14.3535 14 13.9998V4.6665C14 4.31288 13.8595 3.97374 13.6095 3.72369C13.3594 3.47365 13.0203 3.33317 12.6667 3.33317ZM10.6667 0.666504H2.66668C2.31305 0.666504 1.97392 0.80698 1.72387 1.05703C1.47382 1.30708 1.33334 1.64622 1.33334 1.99984V11.3332H2.66668V1.99984H10.6667V0.666504Z" fill="#808080"/>
</svg>
