<svg width="24" height="24" viewBox="0 0 24 24" fill="none" xmlns="http://www.w3.org/2000/svg">
<path d="M18.5 13.917C21.0314 13.917 23.083 15.9686 23.083 18.5C23.083 21.0314 21.0314 23.083 18.5 23.083C15.9686 23.083 13.917 21.0314 13.917 18.5C13.917 15.9686 15.9686 13.917 18.5 13.917ZM12.2539 2.00684C12.2739 2.01017 12.2941 2.01234 12.3135 2.01367C12.5282 2.02869 12.7397 2.07048 12.9365 2.15234C12.9934 2.17631 13.0486 2.2083 13.1025 2.23926L13.1533 2.26758L13.2002 2.29199C13.2278 2.30539 13.255 2.32006 13.2812 2.33594C13.3591 2.38887 13.4291 2.45172 13.5 2.51562L13.5361 2.5459L13.585 2.58594L19.4141 8.41406C19.7891 8.78904 19.9999 9.29777 20 9.82812V13H18.5V10H14C13.4696 10 12.961 9.78914 12.5859 9.41406C12.2109 9.03899 12 8.53043 12 8V3.5H6C5.86739 3.5 5.74025 3.55272 5.64648 3.64648C5.55272 3.74025 5.5 3.86739 5.5 4V20C5.5 20.1326 5.55272 20.2597 5.64648 20.3535C5.74025 20.4473 5.86739 20.5 6 20.5H13V22H6C5.46957 22 4.96101 21.7891 4.58594 21.4141C4.21086 21.039 4 20.5304 4 20V4C4 3.46957 4.21086 2.96101 4.58594 2.58594C4.96101 2.21086 5.46957 2 6 2H12.1719C12.1998 2.00067 12.2273 2.00285 12.2539 2.00684ZM18.5 19.875C18.3785 19.875 18.2617 19.9229 18.1758 20.0088C18.0899 20.0947 18.0421 20.2116 18.042 20.333C18.042 20.4545 18.0899 20.5713 18.1758 20.6572C18.2617 20.7432 18.3784 20.792 18.5 20.792H18.5039C18.6254 20.7919 18.7422 20.7431 18.8281 20.6572C18.9139 20.5713 18.9619 20.4544 18.9619 20.333C18.9618 20.2116 18.914 20.0947 18.8281 20.0088C18.7422 19.9229 18.6254 19.8751 18.5039 19.875H18.5ZM18.5 16.208C18.3784 16.208 18.2617 16.2568 18.1758 16.3428C18.0899 16.4287 18.042 16.5455 18.042 16.667V18.958C18.042 19.0795 18.0899 19.1963 18.1758 19.2822C18.2617 19.3682 18.3784 19.417 18.5 19.417C18.6216 19.417 18.7383 19.3682 18.8242 19.2822C18.9101 19.1963 18.958 19.0795 18.958 18.958V16.667C18.958 16.5455 18.9101 16.4287 18.8242 16.3428C18.7383 16.2568 18.6216 16.208 18.5 16.208ZM13 18.5H8.75C8.55109 18.5 8.36038 18.4209 8.21973 18.2803C8.07907 18.1396 8 17.9489 8 17.75C8 17.5511 8.07907 17.3604 8.21973 17.2197C8.36038 17.0791 8.55109 17 8.75 17H13V18.5ZM13 15.75H8.75C8.55109 15.75 8.36038 15.6709 8.21973 15.5303C8.07907 15.3896 8 15.1989 8 15C8 14.8011 8.07907 14.6104 8.21973 14.4697C8.36038 14.3291 8.55109 14.25 8.75 14.25H13V15.75ZM15.25 11.5C15.4489 11.5 15.6396 11.5791 15.7803 11.7197C15.9209 11.8604 16 12.0511 16 12.25C16 12.4489 15.9209 12.6396 15.7803 12.7803C15.6396 12.9209 15.4489 13 15.25 13H8.75C8.55109 13 8.36038 12.9209 8.21973 12.7803C8.07907 12.6396 8 12.4489 8 12.25C8 12.0511 8.07907 11.8604 8.21973 11.7197C8.36038 11.5791 8.55109 11.5 8.75 11.5H15.25ZM13.5 8C13.5 8.13261 13.5527 8.25975 13.6465 8.35352C13.7403 8.44728 13.8674 8.5 14 8.5H17.3779L13.5 4.62109V8Z" fill="#44424B"/>
</svg>
