<svg width="24" height="24" viewBox="0 0 24 24" fill="none" xmlns="http://www.w3.org/2000/svg">
<path d="M11.5 6.6C11.3884 6.59997 11.2778 6.62323 11.1747 6.66844C11.0715 6.71366 10.9778 6.77996 10.8989 6.86353C10.82 6.94711 10.7574 7.04634 10.7146 7.15555C10.6719 7.26475 10.65 7.3818 10.65 7.5V11.4454L8.58394 12.5462C8.48425 12.5993 8.39542 12.6727 8.32251 12.7621C8.2496 12.8516 8.19404 12.9554 8.15901 13.0675C8.12397 13.1797 8.11015 13.2981 8.11833 13.4159C8.12651 13.5338 8.15652 13.6487 8.20667 13.7543C8.25681 13.8598 8.32609 13.9539 8.41057 14.0311C8.49504 14.1083 8.59305 14.1671 8.699 14.2042C8.80495 14.2413 8.91675 14.256 9.02804 14.2473C9.13933 14.2386 9.24792 14.2069 9.34761 14.1538L11.8818 12.8038C12.0226 12.729 12.141 12.6142 12.2236 12.4722C12.3063 12.3303 12.3501 12.1668 12.35 12V7.5C12.35 7.3818 12.3281 7.26475 12.2854 7.15555C12.2427 7.04634 12.18 6.94711 12.1011 6.86353C12.0222 6.77996 11.9285 6.71366 11.8253 6.66844C11.7222 6.62323 11.6116 6.59997 11.5 6.6ZM11.5 3C9.81886 3 8.17547 3.52784 6.77766 4.51677C5.37984 5.50571 4.29037 6.91131 3.64703 8.55585C3.00368 10.2004 2.83535 12.01 3.16333 13.7558C3.4913 15.5016 4.30085 17.1053 5.4896 18.364C6.67834 19.6226 8.1929 20.4798 9.84174 20.8271C11.4906 21.1743 13.1996 20.9961 14.7528 20.3149C16.306 19.6337 17.6335 18.4802 18.5675 17.0001C19.5015 15.5201 20 13.78 20 12C19.9974 9.61389 19.1011 7.32629 17.5076 5.63905C15.9141 3.95182 13.7536 3.00273 11.5 3ZM11.5 19.2C10.1551 19.2 8.84038 18.7777 7.72213 17.9866C6.60387 17.1954 5.7323 16.0709 5.21762 14.7553C4.70295 13.4397 4.56828 11.992 4.83066 10.5953C5.09304 9.19869 5.74068 7.91577 6.69168 6.90883C7.64267 5.90189 8.85432 5.21616 10.1734 4.93835C11.4925 4.66053 12.8597 4.80312 14.1023 5.34807C15.3448 5.89302 16.4068 6.81586 17.154 7.99989C17.9012 9.18393 18.3 10.576 18.3 12C18.2979 13.9089 17.5808 15.739 16.306 17.0888C15.0312 18.4385 13.3028 19.1978 11.5 19.2Z" fill="#44424B"/>
</svg>
