<svg width="24" height="24" viewBox="0 0 24 24" fill="none" xmlns="http://www.w3.org/2000/svg">
<path d="M11.9999 8C13.0608 8 14.0782 8.42143 14.8283 9.17157C15.5785 9.92172 15.9999 10.9391 15.9999 12C15.9999 13.0609 15.5785 14.0783 14.8283 14.8284C14.0782 15.5786 13.0608 16 11.9999 16C10.939 16 9.92161 15.5786 9.17147 14.8284C8.42132 14.0783 7.99989 13.0609 7.99989 12C7.99989 10.9391 8.42132 9.92172 9.17147 9.17157C9.92161 8.42143 10.939 8 11.9999 8ZM11.9999 10C11.4695 10 10.9608 10.2107 10.5857 10.5858C10.2106 10.9609 9.99989 11.4696 9.99989 12C9.99989 12.5304 10.2106 13.0391 10.5857 13.4142C10.9608 13.7893 11.4695 14 11.9999 14C12.5303 14 13.039 13.7893 13.4141 13.4142C13.7892 13.0391 13.9999 12.5304 13.9999 12C13.9999 11.4696 13.7892 10.9609 13.4141 10.5858C13.039 10.2107 12.5303 10 11.9999 10ZM9.99989 22C9.74989 22 9.53989 21.82 9.49989 21.58L9.12989 18.93C8.49989 18.68 7.95989 18.34 7.43989 17.94L4.94989 18.95C4.72989 19.03 4.45989 18.95 4.33989 18.73L2.33989 15.27C2.27869 15.167 2.25711 15.0452 2.2792 14.9274C2.30128 14.8096 2.36552 14.7039 2.45989 14.63L4.56989 12.97L4.49989 12L4.56989 11L2.45989 9.37C2.36552 9.29613 2.30128 9.19042 2.2792 9.07263C2.25711 8.95484 2.27869 8.83304 2.33989 8.73L4.33989 5.27C4.45989 5.05 4.72989 4.96 4.94989 5.05L7.43989 6.05C7.95989 5.66 8.49989 5.32 9.12989 5.07L9.49989 2.42C9.53989 2.18 9.74989 2 9.99989 2H13.9999C14.2499 2 14.4599 2.18 14.4999 2.42L14.8699 5.07C15.4999 5.32 16.0399 5.66 16.5599 6.05L19.0499 5.05C19.2699 4.96 19.5399 5.05 19.6599 5.27L21.6599 8.73C21.7899 8.95 21.7299 9.22 21.5399 9.37L19.4299 11L19.4999 12L19.4299 13L21.5399 14.63C21.7299 14.78 21.7899 15.05 21.6599 15.27L19.6599 18.73C19.5399 18.95 19.2699 19.04 19.0499 18.95L16.5599 17.95C16.0399 18.34 15.4999 18.68 14.8699 18.93L14.4999 21.58C14.4599 21.82 14.2499 22 13.9999 22H9.99989ZM11.2499 4L10.8799 6.61C9.67989 6.86 8.61989 7.5 7.84989 8.39L5.43989 7.35L4.68989 8.65L6.79989 10.2C6.39989 11.3667 6.39989 12.6333 6.79989 13.8L4.67989 15.36L5.42989 16.66L7.85989 15.62C8.62989 16.5 9.67989 17.14 10.8699 17.38L11.2399 20H12.7599L13.1299 17.39C14.3199 17.14 15.3699 16.5 16.1399 15.62L18.5699 16.66L19.3199 15.36L17.1999 13.81C17.5999 12.64 17.5999 11.37 17.1999 10.2L19.3099 8.65L18.5599 7.35L16.1499 8.39C15.3641 7.48032 14.2982 6.85767 13.1199 6.62L12.7499 4H11.2499Z" fill="#44424B"/>
</svg>
