<svg width="24" height="24" viewBox="0 0 24 24" fill="none" xmlns="http://www.w3.org/2000/svg">
<path d="M18 12.03V10H20V12.18C19.5 12.07 19 12 18.5 12C18.33 12 18.17 12 18 12.03ZM9.5 11C9.22 11 9 11.22 9 11.5V13H15V11.5C15 11.22 14.78 11 14.5 11H9.5ZM6 19V10H4V21H12.5C12.24 20.38 12.09 19.7 12.03 19H6ZM21 9H3V3H21V9ZM19 5H5V7H19V5ZM22 18.5V14.5L20.83 15.67C20.4583 15.2987 20.017 15.0042 19.5314 14.8035C19.0458 14.6027 18.5254 14.4996 18 14.5C15.79 14.5 14 16.29 14 18.5C14 20.71 15.79 22.5 18 22.5C19.68 22.5 21.12 21.47 21.71 20H20C19.6938 20.4072 19.2705 20.7111 18.7868 20.871C18.3031 21.031 17.7821 21.0393 17.2936 20.895C16.805 20.7506 16.3722 20.4605 16.0531 20.0633C15.734 19.6662 15.5438 19.1811 15.5081 18.6729C15.4723 18.1647 15.5927 17.6577 15.8531 17.2198C16.1134 16.7819 16.5014 16.434 16.9649 16.2227C17.4285 16.0113 17.9455 15.9467 18.4469 16.0374C18.9482 16.128 19.4098 16.3697 19.77 16.73L18 18.5H22Z" fill="#44424B"/>
</svg>
