<svg width="24" height="24" viewBox="0 0 24 24" fill="none" xmlns="http://www.w3.org/2000/svg">
<path d="M19.5893 16.6155C19.184 16.3343 18.6351 16.4304 18.3504 16.8172C15.8495 20.2111 11.0922 21.2745 7.28474 19.2924C3.11771 17.1232 1.55644 12.0873 3.80406 8.06561C6.05169 4.04387 11.2694 2.53704 15.4364 4.7063C17.1395 5.59289 18.4559 7.00281 19.2094 8.68327L17.6919 7.89327C17.2604 7.66863 16.7213 7.82432 16.4885 8.24078C16.2558 8.65724 16.4171 9.17754 16.8486 9.40217L19.9754 11.0299C20.4069 11.2546 20.946 11.0989 21.1788 10.6824L22.8935 7.6143C23.1262 7.19785 22.9649 6.67754 22.5334 6.45291C22.1019 6.22828 21.5628 6.38397 21.33 6.80043L20.7611 7.81843C19.8372 5.86746 18.2757 4.23645 16.2797 3.19739C11.2507 0.579416 4.9532 2.39807 2.24065 7.25173C-0.471903 12.1054 1.41246 18.1833 6.44146 20.8013C11.0369 23.1936 16.7795 21.908 19.7989 17.8102C20.0831 17.4244 19.9896 16.8888 19.5893 16.6155Z" fill="#44424B"/>
<path d="M14.2196 10.0485V8.92185C14.2196 7.34459 12.9635 6.10532 11.3648 6.10532C9.76608 6.10532 8.50995 7.34459 8.50995 8.92185V10.0485C7.53931 10.0485 6.79705 10.7808 6.79705 11.7384V15.6815C6.79705 16.6391 7.53931 17.3714 8.50995 17.3714H14.2196C15.1903 17.3714 15.9325 16.6391 15.9325 15.6815V11.7384C15.9325 10.7808 15.1903 10.0485 14.2196 10.0485ZM9.65189 8.92185C9.65189 7.96423 10.3941 7.23193 11.3648 7.23193C12.3354 7.23193 13.0777 7.96423 13.0777 8.92185V10.0485H9.65189V8.92185ZM11.9358 14.5549C11.9358 14.8929 11.7074 15.1182 11.3648 15.1182C11.0222 15.1182 10.7938 14.8929 10.7938 14.5549V12.865C10.7938 12.527 11.0222 12.3017 11.3648 12.3017C11.7074 12.3017 11.9358 12.527 11.9358 12.865V14.5549Z" fill="#44424B"/>
</svg>
