<svg width="24" height="24" viewBox="0 0 24 24" fill="none" xmlns="http://www.w3.org/2000/svg">
<path d="M4 15V20H9V15H4ZM15 15V20H20V15H15ZM4 4V9H9V4H4ZM20 6.5C20 6.1717 19.9352 5.84628 19.8096 5.54297C19.6839 5.23978 19.4996 4.96449 19.2676 4.73242C19.0355 4.50036 18.7602 4.31606 18.457 4.19043C18.1537 4.06479 17.8283 4 17.5 4C16.837 4 16.2013 4.26358 15.7324 4.73242C15.2636 5.20126 15 5.83696 15 6.5C15 7.16304 15.2636 7.79874 15.7324 8.26758C16.2013 8.73642 16.837 9 17.5 9C17.8283 9 18.1537 8.93521 18.457 8.80957C18.7602 8.68394 19.0355 8.49964 19.2676 8.26758C19.4996 8.03551 19.6839 7.76022 19.8096 7.45703C19.9352 7.15372 20 6.8283 20 6.5ZM11 20C11 20.5304 10.7891 21.039 10.4141 21.4141C10.039 21.7891 9.53043 22 9 22H4C3.46957 22 2.96101 21.7891 2.58594 21.4141C2.21086 21.039 2 20.5304 2 20V15C2 14.4696 2.21086 13.961 2.58594 13.5859C2.96101 13.2109 3.46957 13 4 13H9C9.53043 13 10.039 13.2109 10.4141 13.5859C10.7891 13.961 11 14.4696 11 15V20ZM22 20C22 20.5304 21.7891 21.039 21.4141 21.4141C21.039 21.7891 20.5304 22 20 22H15C14.4696 22 13.961 21.7891 13.5859 21.4141C13.2109 21.039 13 20.5304 13 20V15C13 14.4696 13.2109 13.961 13.5859 13.5859C13.961 13.2109 14.4696 13 15 13H20C20.5304 13 21.039 13.2109 21.4141 13.5859C21.7891 13.961 22 14.4696 22 15V20ZM22 6.5C22 7.09086 21.8833 7.67579 21.6572 8.22168C21.4311 8.76764 21.0995 9.26378 20.6816 9.68164C20.2638 10.0995 19.7676 10.4311 19.2217 10.6572C18.6758 10.8833 18.0909 11 17.5 11C16.3065 11 15.1623 10.5256 14.3184 9.68164C13.4744 8.83773 13 7.69347 13 6.5C13 5.30653 13.4744 4.16227 14.3184 3.31836C15.1623 2.47445 16.3065 2 17.5 2C18.0909 2 18.6758 2.1167 19.2217 2.34277C19.7676 2.56892 20.2638 2.9005 20.6816 3.31836C21.0995 3.73622 21.4311 4.23236 21.6572 4.77832C21.8833 5.32421 22 5.90914 22 6.5ZM11 9C11 9.53043 10.7891 10.039 10.4141 10.4141C10.039 10.7891 9.53043 11 9 11H4C3.46957 11 2.96101 10.7891 2.58594 10.4141C2.21086 10.039 2 9.53043 2 9V4C2 3.46957 2.21086 2.96101 2.58594 2.58594C2.96101 2.21086 3.46957 2 4 2H9C9.53043 2 10.039 2.21086 10.4141 2.58594C10.7891 2.96101 11 3.46957 11 4V9Z" fill="#44424B"/>
</svg>
