<svg width="24" height="24" viewBox="0 0 24 24" fill="none" xmlns="http://www.w3.org/2000/svg">
<path d="M11.475 5.525L7.84995 9.15C7.79995 9.2 7.76262 9.254 7.73795 9.312C7.71328 9.37 7.70062 9.43267 7.69995 9.5C7.69995 9.63333 7.74595 9.75 7.83795 9.85C7.92995 9.95 8.05062 10 8.19995 10H15.8C15.95 10 16.071 9.95 16.163 9.85C16.255 9.75 16.3006 9.63333 16.3 9.5C16.3 9.46667 16.25 9.35 16.15 9.15L12.525 5.525C12.4416 5.44167 12.3583 5.38333 12.275 5.35C12.1916 5.31667 12.1 5.3 12 5.3C11.9 5.3 11.8083 5.31667 11.725 5.35C11.6416 5.38333 11.5583 5.44167 11.475 5.525Z" fill="#44424B"/>
<path d="M11.475 18.475L7.84995 14.85C7.79995 14.8 7.76262 14.746 7.73795 14.688C7.71328 14.63 7.70062 14.5673 7.69995 14.5C7.69995 14.3667 7.74595 14.25 7.83795 14.15C7.92995 14.05 8.05062 14 8.19995 14H15.8C15.95 14 16.071 14.05 16.163 14.15C16.255 14.25 16.3006 14.3667 16.3 14.5C16.3 14.5333 16.25 14.65 16.15 14.85L12.525 18.475C12.4416 18.5583 12.3583 18.6167 12.275 18.65C12.1916 18.6833 12.1 18.7 12 18.7C11.9 18.7 11.8083 18.6833 11.725 18.65C11.6416 18.6167 11.5583 18.5583 11.475 18.475Z" fill="#44424B"/>
</svg>
