<svg width="24" height="24" viewBox="0 0 24 24" fill="none" xmlns="http://www.w3.org/2000/svg">
<path d="M10 12C8.9 12 7.95833 11.6083 7.175 10.825C6.39167 10.0417 6 9.1 6 8C6 6.9 6.39167 5.95833 7.175 5.175C7.95833 4.39167 8.9 4 10 4C11.1 4 12.0417 4.39167 12.825 5.175C13.6083 5.95833 14 6.9 14 8C14 9.1 13.6083 10.0417 12.825 10.825C12.0417 11.6083 11.1 12 10 12ZM2 20V17.2C2 16.65 2.14167 16.1333 2.425 15.65C2.70833 15.1667 3.1 14.8 3.6 14.55C4.45 14.1167 5.40833 13.75 6.475 13.45C7.54167 13.15 8.71667 13 10 13H10.35C10.45 13 10.55 13.0167 10.65 13.05C10.5167 13.35 10.4043 13.6627 10.313 13.988C10.2217 14.3133 10.1507 14.6507 10.1 15H10C8.81667 15 7.75433 15.15 6.813 15.45C5.87167 15.75 5.10067 16.05 4.5 16.35C4.35 16.4333 4.229 16.55 4.137 16.7C4.045 16.85 3.99933 17.0167 4 17.2V18H10.3C10.4 18.35 10.5333 18.696 10.7 19.038C10.8667 19.38 11.05 19.7007 11.25 20H2ZM16 21L15.7 19.5C15.5 19.4167 15.3127 19.3293 15.138 19.238C14.9633 19.1467 14.784 19.034 14.6 18.9L13.15 19.35L12.15 17.65L13.3 16.65C13.2667 16.4167 13.25 16.2 13.25 16C13.25 15.8 13.2667 15.5833 13.3 15.35L12.15 14.35L13.15 12.65L14.6 13.1C14.7833 12.9667 14.9627 12.8543 15.138 12.763C15.3133 12.6717 15.5007 12.584 15.7 12.5L16 11H18L18.3 12.5C18.5 12.5833 18.6877 12.675 18.863 12.775C19.0383 12.875 19.2173 13 19.4 13.15L20.85 12.65L21.85 14.4L20.7 15.4C20.7333 15.6 20.75 15.8083 20.75 16.025C20.75 16.2417 20.7333 16.45 20.7 16.65L21.85 17.65L20.85 19.35L19.4 18.9C19.2167 19.0333 19.0377 19.146 18.863 19.238C18.6883 19.33 18.5007 19.4173 18.3 19.5L18 21H16ZM17 18C17.55 18 18.021 17.8043 18.413 17.413C18.805 17.0217 19.0007 16.5507 19 16C18.9993 15.4493 18.8037 14.9787 18.413 14.588C18.0223 14.1973 17.5513 14.0013 17 14C16.4487 13.9987 15.978 14.1947 15.588 14.588C15.198 14.9813 15.002 15.452 15 16C14.998 16.548 15.194 17.019 15.588 17.413C15.982 17.807 16.4527 18.0027 17 18ZM10 10C10.55 10 11.021 9.80433 11.413 9.413C11.805 9.02167 12.0007 8.55067 12 8C11.9993 7.44933 11.8037 6.97867 11.413 6.588C11.0223 6.19733 10.5513 6.00133 10 6C9.44867 5.99867 8.978 6.19467 8.588 6.588C8.198 6.98133 8.002 7.452 8 8C7.998 8.548 8.194 9.019 8.588 9.413C8.982 9.807 9.45267 10.0027 10 10Z" fill="#44424B"/>
</svg>
