<svg width="24" height="24" viewBox="0 0 24 24" fill="none" xmlns="http://www.w3.org/2000/svg">
<path d="M17.825 17.5L18.7 18.375C18.8833 18.575 18.9793 18.8127 18.988 19.088C18.9967 19.3634 18.9007 19.6007 18.7 19.8C18.4993 19.9994 18.266 20.0994 18 20.1C17.734 20.1007 17.5007 20.0007 17.3 19.8L14.7 17.2C14.5 17 14.4 16.7667 14.4 16.5C14.4 16.2334 14.5 16 14.7 15.8L17.3 13.2C17.5 13 17.7333 12.9 18 12.9C18.2667 12.9 18.5 13 18.7 13.2C18.9 13.4 18.996 13.6377 18.988 13.913C18.98 14.1884 18.884 14.4257 18.7 14.625L17.825 15.5H21C21.2833 15.5 21.521 15.596 21.713 15.788C21.905 15.98 22.0007 16.2174 22 16.5C21.9993 16.7827 21.9033 17.0204 21.712 17.213C21.5207 17.4057 21.2833 17.5014 21 17.5H17.825ZM4 20C3.45 20 2.97934 19.8044 2.588 19.413C2.19667 19.0217 2.00067 18.5507 2 18V15C2 14.45 2.196 13.9794 2.588 13.588C2.98 13.1967 3.45067 13.0007 4 13H10C10.55 13 11.021 13.196 11.413 13.588C11.805 13.98 12.0007 14.4507 12 15V18C12 18.55 11.8043 19.021 11.413 19.413C11.0217 19.805 10.5507 20.0007 10 20H4ZM4 18H10V15H4V18ZM6.175 8.50003H3C2.71667 8.50003 2.47934 8.40403 2.288 8.21203C2.09667 8.02003 2.00067 7.78269 2 7.50003C1.99934 7.21736 2.09534 6.98003 2.288 6.78803C2.48067 6.59603 2.718 6.50003 3 6.50003H6.175L5.3 5.62503C5.11667 5.42503 5.021 5.18769 5.013 4.91303C5.005 4.63836 5.10067 4.40069 5.3 4.20003C5.49934 3.99936 5.73267 3.89936 6 3.90003C6.26734 3.90069 6.50067 4.00069 6.7 4.20003L9.3 6.80003C9.5 7.00003 9.6 7.23336 9.6 7.50003C9.6 7.76669 9.5 8.00003 9.3 8.20003L6.7 10.8C6.5 11 6.26667 11.1 6 11.1C5.73334 11.1 5.5 11 5.3 10.8C5.1 10.6 5.004 10.3627 5.012 10.088C5.02 9.81336 5.116 9.57569 5.3 9.37503L6.175 8.50003ZM14 11C13.45 11 12.9793 10.8044 12.588 10.413C12.1967 10.0217 12.0007 9.55069 12 9.00003V6.00003C12 5.45003 12.196 4.97936 12.588 4.58803C12.98 4.19669 13.4507 4.00069 14 4.00003H20C20.55 4.00003 21.021 4.19603 21.413 4.58803C21.805 4.98003 22.0007 5.45069 22 6.00003V9.00003C22 9.55003 21.8043 10.021 21.413 10.413C21.0217 10.805 20.5507 11.0007 20 11H14ZM14 9.00003H20V6.00003H14V9.00003Z" fill="#44424B"/>
</svg>
