<svg width="24" height="24" viewBox="0 0 24 24" fill="none" xmlns="http://www.w3.org/2000/svg">
<path d="M5.4751 21C5.05843 21 4.70443 20.8543 4.4131 20.563C4.12176 20.2717 3.97576 19.9173 3.9751 19.5C3.97443 19.0827 4.12043 18.7287 4.4131 18.438C4.70576 18.1473 5.05976 18.0013 5.4751 18H7.0751L4.5251 9.65002C4.0751 9.40002 3.70443 9.03335 3.4131 8.55002C3.12176 8.06668 2.97576 7.55002 2.9751 7.00002C2.9751 6.16668 3.26676 5.45835 3.8501 4.87502C4.43343 4.29168 5.14176 4.00002 5.9751 4.00002C6.6251 4.00002 7.20443 4.18768 7.7131 4.56302C8.22176 4.93835 8.57576 5.41735 8.7751 6.00002H11.9751V5.00002C11.9751 4.71668 12.0711 4.47935 12.2631 4.28802C12.4551 4.09668 12.6924 4.00068 12.9751 4.00002C13.1251 4.00002 13.2711 4.03335 13.4131 4.10002C13.5551 4.16668 13.6758 4.26668 13.7751 4.40002L15.4751 2.80002C15.6251 2.65002 15.8044 2.55402 16.0131 2.51202C16.2218 2.47002 16.4258 2.49935 16.6251 2.60002L20.5251 4.40002C20.7251 4.50002 20.8628 4.64602 20.9381 4.83802C21.0134 5.03002 21.0091 5.21735 20.9251 5.40002C20.8251 5.60002 20.6794 5.72935 20.4881 5.78802C20.2968 5.84668 20.1091 5.83402 19.9251 5.75002L16.3251 4.10002L13.9751 6.30002V7.70002L16.3251 9.85002L19.9251 8.20002C20.1084 8.11668 20.3001 8.10835 20.5001 8.17502C20.7001 8.24168 20.8418 8.36668 20.9251 8.55002C21.0251 8.75002 21.0334 8.94168 20.9501 9.12502C20.8668 9.30835 20.7251 9.45002 20.5251 9.55002L16.6251 11.4C16.4251 11.5 16.2211 11.529 16.0131 11.487C15.8051 11.445 15.6258 11.3493 15.4751 11.2L13.7751 9.60002C13.6751 9.70002 13.5544 9.79168 13.4131 9.87502C13.2718 9.95835 13.1258 10 12.9751 10C12.6918 10 12.4544 9.90435 12.2631 9.71302C12.0718 9.52168 11.9758 9.28402 11.9751 9.00002V8.00002H8.7751C8.7251 8.13335 8.6711 8.25835 8.6131 8.37502C8.5551 8.49168 8.47576 8.61668 8.3751 8.75002L13.3751 18H15.4751C15.8918 18 16.2461 18.146 16.5381 18.438C16.8301 18.73 16.9758 19.084 16.9751 19.5C16.9744 19.916 16.8288 20.2703 16.5381 20.563C16.2474 20.8557 15.8931 21.0013 15.4751 21H5.4751ZM5.9751 8.00002C6.25843 8.00002 6.4961 7.90402 6.6881 7.71202C6.8801 7.52002 6.97576 7.28268 6.9751 7.00002C6.97443 6.71735 6.87876 6.48002 6.6881 6.28802C6.49743 6.09602 6.25976 6.00002 5.9751 6.00002C5.69043 6.00002 5.4531 6.09602 5.2631 6.28802C5.0731 6.48002 4.9771 6.71735 4.9751 7.00002C4.9731 7.28268 5.0691 7.52035 5.2631 7.71302C5.4571 7.90568 5.69443 8.00135 5.9751 8.00002ZM9.1251 18H11.0751L6.7751 10H6.6751L9.1251 18Z" fill="#44424B"/>
</svg>
