<svg width="24" height="24" viewBox="0 0 24 24" fill="none" xmlns="http://www.w3.org/2000/svg">
<path d="M4.99995 4H19C19.2833 4 19.521 4.096 19.7129 4.288C19.9049 4.48 20.0006 4.71733 20 5C19.9993 5.28267 19.9033 5.52033 19.712 5.713C19.5206 5.90567 19.2833 6.00133 19 6H4.99995C4.71662 6 4.47928 5.904 4.28795 5.712C4.09662 5.52 4.00062 5.28267 3.99995 5C3.99928 4.71733 4.09528 4.48 4.28795 4.288C4.48062 4.096 4.71795 4 4.99995 4ZM4.99995 20C4.71662 20 4.47928 19.904 4.28795 19.712C4.09662 19.52 4.00062 19.2827 3.99995 19V14H3.82495C3.50828 14 3.24995 13.879 3.04995 13.637C2.84995 13.395 2.78328 13.116 2.84995 12.8L3.84995 7.8C3.89995 7.56667 4.01662 7.375 4.19995 7.225C4.38328 7.075 4.59162 7 4.82495 7H19.1749C19.4083 7 19.6166 7.075 19.7999 7.225C19.9833 7.375 20.1 7.56667 20.15 7.8L21.15 12.8C21.2166 13.1167 21.15 13.3957 20.95 13.637C20.75 13.8783 20.4916 13.9993 20.1749 14H20V19C20 19.2833 19.9039 19.521 19.712 19.713C19.52 19.905 19.2826 20.0007 19 20C18.7173 19.9993 18.48 19.9033 18.288 19.712C18.096 19.5207 18 19.2833 18 19V14H14V19C14 19.2833 13.904 19.521 13.712 19.713C13.52 19.905 13.2826 20.0007 13 20H4.99995ZM5.99995 18H12V14H5.99995V18ZM5.04995 12H18.95L18.35 9H5.64995L5.04995 12Z" fill="#44424B"/>
</svg>
