<svg width="24" height="24" viewBox="0 0 24 24" fill="none" xmlns="http://www.w3.org/2000/svg">
<path d="M14 5.00001C14.006 5.26635 13.9588 5.53121 13.861 5.77904C13.7633 6.02686 13.617 6.25267 13.4308 6.44318C13.2446 6.6337 13.0222 6.7851 12.7767 6.88848C12.5311 6.99187 12.2674 7.04516 12.001 7.04523C11.7346 7.04529 11.4709 6.99214 11.2253 6.88887C10.9797 6.78561 10.7572 6.63433 10.5709 6.4439C10.3846 6.25347 10.2382 6.02774 10.1404 5.77997C10.0425 5.53219 9.99511 5.26735 10.001 5.00101C10.0126 4.47845 10.2282 3.98118 10.6018 3.61564C10.9755 3.25011 11.4773 3.04536 12 3.04523C12.5227 3.0451 13.0247 3.24959 13.3985 3.61494C13.7723 3.98029 13.9882 4.47746 14 5.00001ZM12.75 12.5V15.25H18C18.69 15.25 19.25 15.81 19.25 16.5V18.2C19.536 18.3651 19.7595 18.62 19.8858 18.925C20.0122 19.2301 20.0344 19.5683 19.9489 19.8873C19.8634 20.2062 19.6751 20.4881 19.4131 20.6891C19.1512 20.8901 18.8302 20.9991 18.5 20.9991C18.1698 20.9991 17.8488 20.8901 17.5869 20.6891C17.3249 20.4881 17.1366 20.2062 17.0511 19.8873C16.9656 19.5683 16.9878 19.2301 17.1142 18.925C17.2405 18.62 17.464 18.3651 17.75 18.2V16.75H12.75V18.2C13.036 18.3651 13.2595 18.62 13.3858 18.925C13.5122 19.2301 13.5344 19.5683 13.4489 19.8873C13.3634 20.2062 13.1751 20.4881 12.9131 20.6891C12.6512 20.8901 12.3302 20.9991 12 20.9991C11.6698 20.9991 11.3488 20.8901 11.0869 20.6891C10.8249 20.4881 10.6366 20.2062 10.5511 19.8873C10.4656 19.5683 10.4878 19.2301 10.6142 18.925C10.7405 18.62 10.964 18.3651 11.25 18.2V16.75H6.25V18.2C6.53596 18.3651 6.75946 18.62 6.88582 18.925C7.01218 19.2301 7.03435 19.5683 6.94889 19.8873C6.86343 20.2062 6.67511 20.4881 6.41314 20.6891C6.15118 20.8901 5.8302 20.9991 5.5 20.9991C5.1698 20.9991 4.84882 20.8901 4.58686 20.6891C4.32489 20.4881 4.13657 20.2062 4.05111 19.8873C3.96565 19.5683 3.98782 19.2301 4.11418 18.925C4.24054 18.62 4.46404 18.3651 4.75 18.2V16.5C4.75 15.81 5.31 15.25 6 15.25H11.25V12.5H12.75ZM12 8.00001C10.665 8.00001 8 8.67401 8 9.77801V11.111H16V9.77801C16 8.67401 13.335 8.00001 12 8.00001Z" fill="#44424B"/>
</svg>
