<svg width="24" height="24" viewBox="0 0 24 24" fill="none" xmlns="http://www.w3.org/2000/svg">
<path d="M11.2698 1C11.792 1.0001 12.072 1.28001 12.072 1.80731V2.65958L14.0591 3.49031L14.091 3.45753C14.2601 3.28532 14.4467 3.09544 14.6342 2.90683C14.7075 2.82028 14.7972 2.74909 14.8979 2.69798C14.9985 2.64687 15.1083 2.6167 15.2206 2.60901C15.3318 2.61722 15.4402 2.64784 15.5396 2.69892C15.6391 2.75002 15.7273 2.82079 15.7995 2.90683C16.4636 3.57638 17.1268 4.24651 17.7885 4.91762C18.187 5.31842 18.1858 5.70976 17.7885 6.11642L17.6731 6.23349C17.5156 6.39522 17.353 6.56251 17.1862 6.72424C17.3135 6.9607 17.4088 7.03397 17.6056 7.06328C18.1291 7.14649 18.5462 7.49059 18.8937 8.11878L18.9031 8.13564L18.9416 8.12346C19.3479 7.9741 19.7672 7.86355 20.1941 7.79473C20.2706 7.78224 20.3484 7.77599 20.4258 7.776C20.5936 7.76835 20.761 7.80351 20.9118 7.87808C21.0627 7.95279 21.1929 8.06526 21.2899 8.204C21.4776 8.49349 21.4905 8.88374 21.3237 9.27636C21.218 9.50958 21.0943 9.73411 20.954 9.94788C20.9158 10.0111 20.8838 10.0619 20.8386 10.138C20.7935 10.2141 20.7474 10.2855 20.6988 10.3581C20.8505 10.47 20.9776 10.6127 21.0723 10.7767C21.167 10.9409 21.227 11.1236 21.2486 11.3124C21.2771 11.5044 21.2658 11.7003 21.2149 11.8875C21.1638 12.0748 21.074 12.2496 20.9522 12.3998L21.1389 12.6189C21.4261 12.9553 21.7228 13.2999 21.9973 13.6585C22.9737 14.9301 23.5874 16.1737 23.8747 17.4628C24.0369 18.1946 24.0417 18.9533 23.8888 19.6871C23.7359 20.4209 23.4284 21.1125 22.9881 21.7157C22.0847 22.9685 20.7021 23.8021 19.2821 23.9429C18.7991 23.9933 18.3106 23.9934 17.8392 23.9934H17.4714C17.0719 24.0005 16.6711 24 16.2705 24C15.879 24 15.5289 23.9965 15.2 23.9906C13.057 23.9473 11.4315 22.9184 10.3682 20.9318L10.3569 20.9122C10.043 20.918 9.73578 20.9178 9.42998 20.9178H8.46362C7.88477 20.9153 7.61084 20.6447 7.61078 20.059V19.2095C7.49387 19.1732 7.37435 19.1325 7.25051 19.0915C7.01892 19.0165 6.78688 18.9384 6.55529 18.8424C6.28659 18.731 6.02344 18.595 5.77095 18.4649L5.65461 18.4041L5.60488 18.4546C5.42202 18.6408 5.23673 18.8292 5.0504 19.0166C4.97766 19.1008 4.88901 19.1699 4.78958 19.2189C4.69019 19.2677 4.58187 19.2954 4.47152 19.3013C4.36097 19.2965 4.25213 19.2695 4.15253 19.2207C4.05295 19.172 3.964 19.1032 3.89171 19.0184C3.21678 18.3379 2.54357 17.6559 1.87173 16.973C1.49768 16.5945 1.49777 16.2077 1.87173 15.8257C2.05823 15.6347 2.24827 15.4443 2.42434 15.2685L2.46656 15.2263L1.64281 13.2174H0.820936C0.143591 13.2173 0 12.7696 0 12.397V9.50582C0.00123447 9.13555 0.143802 8.6913 0.819998 8.6854H1.67659C1.86624 7.99553 2.13839 7.33136 2.4872 6.70832L2.43748 6.65681C2.24867 6.46929 2.06154 6.28427 1.87736 6.09675C1.49416 5.70189 1.49221 5.30943 1.8708 4.92511C2.54339 4.24303 3.21663 3.56097 3.89077 2.87967C4.03742 2.71376 4.24266 2.61201 4.46214 2.59683C4.56991 2.60237 4.67562 2.63062 4.77269 2.67831C4.86963 2.726 4.95608 2.7928 5.02694 2.87499C5.21575 3.06368 5.40222 3.25502 5.58987 3.44723L5.6471 3.50529C6.26376 3.15238 6.92066 2.87676 7.60328 2.68487V1.82042C7.60328 1.2779 7.88126 1.00011 8.41389 1H11.2698ZM14.4194 12.9505C14.387 12.9541 14.3553 12.9655 14.3284 12.9842C13.9809 13.344 13.6133 13.7302 13.2785 14.1334C12.353 15.2526 11.7664 16.2885 11.434 17.3973V17.3944C11.2447 17.9878 11.199 18.6189 11.3008 19.2338C11.4025 19.8486 11.6487 20.4296 12.0185 20.9281C12.3781 21.4284 12.8484 21.8374 13.3911 22.1222C13.934 22.407 14.5351 22.5599 15.1465 22.5689H17.3081C17.8757 22.5689 18.3414 22.5659 18.7746 22.5577C20.5074 22.526 22.1433 21.1393 22.4908 19.4024C22.6738 18.4931 22.5393 17.5706 22.0668 16.516C21.5363 15.3229 20.7089 14.1883 19.466 12.9495C19.4502 12.9454 19.4337 12.9436 19.4172 12.9439H15.7244C15.3678 12.9439 14.8965 12.9446 14.4194 12.9505ZM16.9141 13.8739C17.0874 13.8664 17.2573 13.9278 17.387 14.0444C17.5164 14.1609 17.5962 14.3238 17.6093 14.4986C17.62 14.6202 17.6235 14.7428 17.6206 14.8648C17.9477 14.9619 18.2407 15.151 18.4659 15.4099C18.7774 15.7744 18.7775 16.2087 18.4659 16.4935C18.3424 16.6116 18.1798 16.6784 18.0099 16.6808C17.8947 16.675 17.782 16.6449 17.6787 16.5928C17.5755 16.5405 17.4833 16.4672 17.4095 16.3773C17.2749 16.2656 17.104 16.2076 16.93 16.2153C16.8078 16.2098 16.6866 16.2423 16.5829 16.308C16.529 16.3481 16.4878 16.4037 16.4647 16.4673C16.4416 16.5308 16.4379 16.5999 16.4534 16.6658C16.4646 16.7345 16.4974 16.7976 16.5473 16.8456C16.5972 16.8937 16.6617 16.924 16.7302 16.9318C16.8093 16.9414 16.8889 16.9462 16.9685 16.9468C17.0322 16.9479 17.0962 16.9552 17.1599 16.9552C17.5571 16.9821 17.9332 17.1449 18.2276 17.416C18.522 17.6871 18.7173 18.0506 18.7811 18.4481C18.9109 19.3398 18.434 20.1522 17.6234 20.4242C17.638 20.5808 17.6297 20.7392 17.599 20.8934C17.5722 21.0547 17.4883 21.2006 17.3635 21.3046C17.2386 21.4086 17.0805 21.4636 16.9188 21.4591H16.8803C16.7791 21.4571 16.6793 21.4341 16.5876 21.3907C16.4958 21.3473 16.4139 21.2846 16.3474 21.2072C16.2957 21.1435 16.2582 21.0694 16.2367 20.9899C16.2152 20.9103 16.2102 20.827 16.2226 20.7455C16.255 20.517 16.2383 20.429 15.9187 20.3352C15.656 20.2543 15.4729 20.0391 15.3248 19.867L15.2929 19.8276C15.2305 19.7575 15.1828 19.6754 15.1531 19.586C15.1234 19.4966 15.1123 19.4018 15.1202 19.3078C15.1294 19.2111 15.1575 19.1168 15.2037 19.0316C15.2499 18.9463 15.3128 18.8713 15.3886 18.8115C15.5166 18.706 15.6767 18.6481 15.8417 18.6466C15.9446 18.6468 16.0461 18.6706 16.1382 18.7169C16.2303 18.7632 16.3105 18.8307 16.3727 18.9135C16.4226 18.9811 16.4897 19.0351 16.566 19.069C16.6422 19.1028 16.7263 19.116 16.809 19.1074C16.9179 19.1049 17.027 19.0945 17.1346 19.0774C17.2108 19.0572 17.2772 19.0096 17.3213 18.9435C17.3653 18.8773 17.384 18.797 17.3738 18.7178C17.37 18.635 17.3365 18.556 17.2791 18.4968C17.2216 18.4376 17.1442 18.402 17.0623 18.3966C16.9964 18.386 16.9455 18.3886 16.8634 18.3863C16.7812 18.3839 16.6937 18.3816 16.6045 18.3722C16.2086 18.3314 15.8381 18.1556 15.5537 17.874C15.2692 17.5923 15.0875 17.2209 15.0386 16.8213C14.9835 16.4141 15.0699 15.9998 15.2825 15.6496C15.4952 15.2997 15.821 15.0346 16.2048 14.9004C16.1926 14.7758 16.1926 14.6503 16.2048 14.5258C16.2134 14.35 16.289 14.1844 16.415 14.0631C16.5411 13.9418 16.7091 13.8737 16.8831 13.8739H16.9141ZM9.01622 3.12692C9.01622 3.65653 8.83016 3.89802 8.32195 4.00822C7.52017 4.18317 6.75493 4.50053 6.06273 4.94572C5.90698 5.06486 5.72065 5.13727 5.52607 5.15364C5.26449 5.15348 5.08233 4.99125 4.90404 4.81085L4.50436 4.4072L3.34098 5.5601C3.48223 5.69833 3.62474 5.83887 3.76599 5.98062C4.16095 6.37556 4.19292 6.67129 3.8964 7.14007C3.45209 7.8402 3.13411 8.61459 2.95725 9.42715C2.84257 9.96158 2.61902 10.1436 2.07345 10.1436H1.42608V11.7845H2.1213C2.59482 11.7869 2.84843 11.9887 2.94223 12.441C3.12253 13.2973 3.45595 14.1131 3.92642 14.8479C4.17891 15.2429 4.14453 15.5571 3.81102 15.8969C3.64885 16.0621 3.4851 16.2261 3.32409 16.3867L4.47715 17.5593C4.63612 17.3922 4.79623 17.2272 4.95752 17.0648C5.02764 16.98 5.11444 16.9098 5.21177 16.8597C5.30902 16.8096 5.41534 16.7801 5.5242 16.7726C5.70068 16.783 5.87049 16.8447 6.01301 16.9505C6.71545 17.4093 7.49275 17.7388 8.30881 17.9227C8.85427 18.0457 9.02277 18.2586 9.02279 18.8339V19.4717H9.88782C9.74651 18.5927 9.83192 17.6934 10.1458 16.6995C10.0115 16.7065 9.87837 16.707 9.74522 16.707C9.56357 16.708 9.38188 16.7001 9.20105 16.6827C8.43159 16.6038 7.68674 16.3627 7.01408 15.9765C6.34139 15.5903 5.755 15.0666 5.2934 14.4387C4.82189 13.8041 4.48459 13.0781 4.3017 12.3061C4.11885 11.5341 4.09442 10.7325 4.2304 9.95069C4.42834 8.81436 4.95984 7.76395 5.75593 6.93778C6.552 6.1117 7.57585 5.54748 8.69348 5.31847C9.06561 5.24568 9.44407 5.20843 9.82309 5.20796C10.7818 5.20056 11.7263 5.443 12.5664 5.91037C13.4066 6.3778 14.1146 7.05497 14.622 7.87808C14.6868 7.99045 14.7867 8.07764 14.9063 8.12533C15.1208 7.74261 15.4322 7.42417 15.8079 7.20282L15.7376 7.08575C15.4827 6.66618 15.513 6.36897 15.8605 6.02557C16.0226 5.86152 16.1872 5.7005 16.3493 5.54231L15.1906 4.37067C15.0354 4.53121 14.8773 4.69246 14.7187 4.853C14.6473 4.94013 14.5593 5.01215 14.4597 5.06373C14.3602 5.11522 14.2513 5.14598 14.1398 5.15364C13.9632 5.14392 13.7932 5.08255 13.6501 4.97756C12.9425 4.51417 12.1576 4.1842 11.3336 4.00448C10.8333 3.89784 10.6384 3.64855 10.6384 3.11662V2.45541H9.01622V3.12692ZM9.88876 6.65494C9.63082 6.65578 9.37331 6.67625 9.11849 6.71675C8.56482 6.80263 8.03415 7.0017 7.55918 7.3021C7.08417 7.60256 6.6743 7.99833 6.35545 8.46437C6.0183 8.95145 5.78252 9.50331 5.66305 10.0855C5.54364 10.6677 5.54353 11.2684 5.66118 11.851L5.70058 12.0308C6.15216 13.8945 7.89772 15.277 9.83341 15.2816C10.1586 15.2808 10.4826 15.2415 10.7988 15.1645C10.8263 15.1479 10.851 15.1258 10.8701 15.0999C11.0241 14.8738 11.1819 14.6395 11.3336 14.4134C11.5699 14.0619 11.8128 13.7019 12.071 13.3504C12.2911 13.0551 12.5363 12.7793 12.7738 12.5122L12.8713 12.4035C12.7466 12.2524 12.6557 12.0754 12.6039 11.8856C12.5523 11.696 12.5407 11.4974 12.5711 11.3031C12.5947 11.1165 12.6561 10.9361 12.7503 10.7739C12.8444 10.612 12.9696 10.4705 13.119 10.359C13.1064 10.3416 13.0949 10.3242 13.0834 10.3056C12.9097 10.0373 12.7456 9.78393 12.5974 9.50863C12.3565 9.05867 12.3029 8.69178 12.436 8.38944C12.5266 8.19627 12.6784 8.0389 12.8676 7.94364C12.0197 7.0883 11.0192 6.65494 9.88876 6.65494ZM9.84279 7.24965C10.0281 7.25115 10.2055 7.32571 10.3382 7.45663C10.4709 7.58767 10.5489 7.76546 10.5549 7.95301V8.20775L10.6928 8.2911C10.9058 8.41369 11.1093 8.55247 11.3017 8.706C11.392 8.77516 11.4664 8.86327 11.5194 8.96449C11.5723 9.06559 11.6026 9.17709 11.6085 9.29135C11.6094 9.39483 11.5888 9.4977 11.5466 9.59198C11.5044 9.6862 11.4419 9.76974 11.3646 9.83736C11.2398 9.95829 11.0739 10.0265 10.9011 10.0275C10.7858 10.0217 10.673 9.9919 10.5699 9.93945C10.4668 9.88701 10.3758 9.81323 10.3025 9.7231C10.1737 9.62038 10.0122 9.5678 9.84842 9.57606C9.73437 9.57003 9.62083 9.59942 9.5238 9.66035C9.47474 9.69482 9.43759 9.74418 9.41684 9.80084C9.39612 9.85765 9.39319 9.92021 9.4084 9.97878C9.41342 10.0366 9.43608 10.0916 9.47407 10.1352C9.51224 10.1789 9.56406 10.2093 9.62043 10.2214C9.71362 10.2406 9.80869 10.2488 9.90377 10.2466H9.94318C10.857 10.2689 11.5577 10.8843 11.6864 11.776C11.7373 12.1752 11.6528 12.5803 11.4462 12.9243C11.2395 13.2682 10.923 13.5308 10.5493 13.6688V13.9479C10.5502 14.0429 10.5322 14.1372 10.4967 14.2251C10.4612 14.3131 10.4083 14.393 10.3419 14.4602C10.2755 14.5274 10.1962 14.5807 10.1092 14.6166C10.0223 14.6525 9.92914 14.6709 9.83528 14.67C9.43578 14.6699 9.14524 14.3707 9.12787 13.9442V13.7091L9.0697 13.6782C8.87634 13.5716 8.6921 13.4769 8.51147 13.3598C8.37828 13.2691 8.26705 13.1483 8.18684 13.0076C8.08843 12.8619 8.04938 12.6836 8.07707 12.5094C8.10488 12.3349 8.19796 12.1772 8.33696 12.0701C8.46657 11.9589 8.63051 11.896 8.80044 11.8922C8.89742 11.8923 8.99315 11.915 9.08002 11.9587C9.16697 12.0023 9.24271 12.0659 9.30144 12.1441C9.41263 12.2883 9.54708 12.3426 9.79494 12.3427H9.95256C10.0373 12.3405 10.118 12.3051 10.1777 12.2443C10.2374 12.1835 10.2718 12.1015 10.2734 12.0158C10.2713 11.93 10.2364 11.8474 10.1759 11.7873C10.1153 11.7272 10.0336 11.6933 9.94881 11.6927L9.79963 11.6852C9.62436 11.6836 9.44932 11.6636 9.27799 11.6262C8.91773 11.5338 8.59659 11.3262 8.36229 11.0343C8.1279 10.7422 7.99295 10.3809 7.97762 10.005C7.95682 9.6279 8.05585 9.25352 8.26002 8.93733C8.46426 8.62123 8.76319 8.37921 9.11286 8.24709H9.12412V7.9708C9.12099 7.78433 9.19106 7.60372 9.31833 7.46881C9.44557 7.3341 9.62023 7.25517 9.80432 7.24965H9.84279ZM14.0019 11.1701C13.9563 11.1659 13.9103 11.1715 13.8668 11.186C13.8232 11.2005 13.7829 11.2245 13.7486 11.2553C13.7144 11.2861 13.6863 11.3238 13.6669 11.3658C13.6477 11.4078 13.6372 11.4535 13.636 11.4998C13.636 11.593 13.6731 11.682 13.7382 11.7479C13.8033 11.8138 13.8911 11.8509 13.9831 11.851H19.3722C19.5238 11.851 19.6766 11.861 19.8282 11.8575C19.8736 11.8589 19.9191 11.8508 19.9614 11.8341C20.0038 11.8173 20.0425 11.7915 20.0749 11.7592C20.1074 11.7269 20.1336 11.6885 20.1509 11.6459C20.1682 11.6032 20.1769 11.5571 20.1763 11.511C20.1761 11.2979 20.032 11.1701 19.7785 11.1701H14.0019ZM16.9197 8.39506C16.6649 8.39511 16.3195 8.49854 16.1898 8.79029C16.1089 8.95417 16.0051 9.10544 15.8811 9.2389L15.8717 9.24827C15.7721 9.36833 15.648 9.46545 15.5087 9.53392C15.3726 9.59894 15.2238 9.63237 15.0733 9.63132C14.9557 9.6306 14.8388 9.6131 14.7262 9.57887C14.6289 9.55074 14.5267 9.51311 14.4457 9.48615C14.3646 9.4592 14.2904 9.43185 14.2139 9.40842C14.3506 9.62755 14.4887 9.84816 14.6277 10.0649H19.1949C19.3327 9.85638 19.466 9.64884 19.6096 9.42153C19.4835 9.46016 19.3585 9.4988 19.2427 9.5386C19.0859 9.59427 18.921 9.62424 18.7549 9.62757C18.2591 9.62757 17.9747 9.30216 17.8045 9.05721L17.7848 9.02068C17.7292 8.94813 17.682 8.86946 17.6431 8.78654C17.5145 8.49706 17.1746 8.39506 16.9197 8.39506Z" fill="#44424B"/>
</svg>
