<svg width="28" height="28" viewBox="0 0 28 28" fill="none" xmlns="http://www.w3.org/2000/svg">
<path fill-rule="evenodd" clip-rule="evenodd" d="M24.668 6.38399L25.244 8.53299C25.3207 8.81979 25.3161 9.12227 25.2307 9.40661C25.1453 9.69094 24.9825 9.94591 24.7605 10.143L24.683 10.208C24.3014 10.5057 24.0143 10.9078 23.8567 11.3654C23.6992 11.8231 23.6778 12.3166 23.7952 12.7862C23.9126 13.2557 24.1638 13.6811 24.5182 14.0107C24.8727 14.3403 25.3152 14.56 25.792 14.643L25.9 14.6595C26.2021 14.699 26.4856 14.8272 26.7148 15.0279C26.944 15.2286 27.1085 15.4928 27.1875 15.787L27.774 17.975C27.8421 18.2287 27.8595 18.4933 27.8252 18.7538C27.791 19.0142 27.7058 19.2654 27.5745 19.4929C27.4432 19.7204 27.2684 19.9198 27.06 20.0798C26.8516 20.2397 26.6137 20.357 26.36 20.425L6.075 25.86C5.56267 25.9971 5.01685 25.9251 4.55759 25.6599C4.09833 25.3946 3.76323 24.9578 3.626 24.4455L3.0745 22.387C2.9926 22.0806 2.99573 21.7577 3.08356 21.453C3.17139 21.1483 3.3406 20.8733 3.573 20.6575L3.6545 20.5875C4.02817 20.2826 4.30571 19.8762 4.45368 19.4173C4.60166 18.9583 4.61376 18.4663 4.48853 18.0006C4.36329 17.5349 4.10606 17.1154 3.74784 16.7925C3.38961 16.4697 2.94567 16.2573 2.4695 16.181C2.14018 16.1279 1.83324 15.9807 1.58564 15.7571C1.33805 15.5336 1.16037 15.2432 1.074 14.921L0.520003 12.8545C0.452038 12.6007 0.434727 12.3361 0.469058 12.0757C0.50339 11.8152 0.588692 11.5641 0.720093 11.3366C0.851493 11.1092 1.02642 10.9098 1.23487 10.75C1.44333 10.5901 1.68124 10.4729 1.935 10.405L22.2185 4.96999C22.4722 4.90194 22.7369 4.88453 22.9973 4.91876C23.2577 4.95299 23.5089 5.03819 23.7364 5.1695C23.9639 5.3008 24.1633 5.47564 24.3233 5.68403C24.4832 5.89241 24.6005 6.13026 24.6685 6.38399M22.586 6.68749L2.4755 12.076C2.198 12.1505 2.033 12.436 2.1075 12.7135L2.503 14.19C3.35827 14.3623 4.14842 14.77 4.78447 15.3672C5.42051 15.9644 5.87717 16.7273 6.103 17.57C6.32887 18.4128 6.31491 19.3018 6.0627 20.1371C5.81049 20.9724 5.33005 21.7206 4.6755 22.2975L5.071 23.774C5.146 24.0515 5.431 24.2165 5.7085 24.142L25.8185 18.7535C26.096 18.679 26.261 18.3935 26.1865 18.116L25.7915 16.64C24.9362 16.4676 24.146 16.0599 23.5099 15.4626C22.8739 14.8653 22.4173 14.1023 22.1915 13.2595C21.9656 12.4168 21.9795 11.5277 22.2316 10.6925C22.4837 9.85722 22.964 9.10896 23.6185 8.53199L23.223 7.05549C23.2054 6.98944 23.1749 6.92751 23.1333 6.87325C23.0917 6.81899 23.0398 6.77347 22.9806 6.73928C22.9214 6.7051 22.856 6.68293 22.7882 6.67405C22.7204 6.66516 22.652 6.66973 22.586 6.68749ZM21.944 17.467C21.995 17.6573 22.0079 17.8557 21.9822 18.051C21.9564 18.2463 21.8925 18.4347 21.794 18.6052C21.6954 18.7758 21.5643 18.9253 21.408 19.0452C21.2517 19.1651 21.0733 19.253 20.883 19.304C20.6927 19.3549 20.4943 19.3679 20.299 19.3422C20.1037 19.3164 19.9153 19.2525 19.7448 19.1539C19.5742 19.0554 19.4247 18.9243 19.3048 18.768C19.1849 18.6117 19.097 18.4333 19.046 18.243C18.9431 17.8587 18.9971 17.4493 19.196 17.1048C19.395 16.7602 19.7227 16.5089 20.107 16.406C20.4913 16.3031 20.9007 16.3571 21.2452 16.556C21.5897 16.755 21.8411 17.0827 21.944 17.467ZM20.909 13.603C21.012 13.9873 20.9581 14.3968 20.7591 14.7413C20.5602 15.0859 20.2325 15.3373 19.8483 15.4402C19.464 15.5432 19.0545 15.4893 18.7099 15.2904C18.3654 15.0914 18.114 14.7638 18.011 14.3795C17.9139 13.9972 17.9713 13.5921 18.1707 13.2518C18.3701 12.9115 18.6956 12.6634 19.0765 12.5613C19.4575 12.4592 19.8634 12.5113 20.2063 12.7063C20.5491 12.9012 20.8019 13.2234 20.909 13.603ZM19.873 9.73949C19.924 9.92978 19.937 10.1282 19.9113 10.3236C19.8856 10.5189 19.8216 10.7072 19.7231 10.8778C19.6246 11.0484 19.4935 11.1979 19.3372 11.3179C19.1809 11.4378 19.0025 11.5258 18.8123 11.5767C18.622 11.6277 18.4235 11.6407 18.2282 11.615C18.0329 11.5893 17.8445 11.5254 17.6739 11.4269C17.5033 11.3284 17.3538 11.1972 17.2339 11.0409C17.114 10.8847 17.026 10.7063 16.975 10.516C16.872 10.1317 16.9259 9.72223 17.1249 9.37768C17.3238 9.03313 17.6515 8.78171 18.0358 8.67874C18.42 8.57577 18.8295 8.62968 19.1741 8.82861C19.5186 9.02754 19.77 9.35519 19.873 9.73949ZM14.6915 3.17349L15.9675 4.99549C15.9862 5.02249 16.004 5.04983 16.021 5.07749L3.8135 8.34849L11.906 2.68199C12.3405 2.37793 12.878 2.25889 13.4003 2.35106C13.9225 2.44323 14.3873 2.73906 14.6915 3.17349Z" fill="#44424B"/>
</svg>
