<svg width="18" height="18" viewBox="0 0 18 18" fill="none" xmlns="http://www.w3.org/2000/svg">
<path d="M5 5C5.13261 5 5.25979 4.94732 5.35355 4.85355C5.44732 4.75979 5.5 4.63261 5.5 4.5V1.5C5.5 1.36739 5.44732 1.24021 5.35355 1.14645C5.25979 1.05268 5.13261 1 5 1C4.86739 1 4.74021 1.05268 4.64645 1.14645C4.55268 1.24021 4.5 1.36739 4.5 1.5V4.5C4.5 4.63261 4.55268 4.75979 4.64645 4.85355C4.74021 4.94732 4.86739 5 5 5Z" fill="#44424B"/>
<path d="M14.9999 6.75C14.0053 6.75 13.0515 6.35491 12.3482 5.65165C11.645 4.94839 11.2499 3.99456 11.2499 3H6.09988V4.5C6.09988 4.79173 5.98399 5.07152 5.7777 5.27781C5.57141 5.4841 5.29162 5.6 4.99988 5.6C4.70815 5.6 4.42836 5.4841 4.22207 5.27781C4.01578 5.07152 3.89988 4.79173 3.89988 4.5V3H1.89988C1.7809 2.99864 1.66284 3.02116 1.55271 3.06623C1.44258 3.11129 1.3426 3.17798 1.25869 3.26236C1.17478 3.34674 1.10864 3.44708 1.06419 3.55746C1.01974 3.66784 0.997871 3.78602 0.999884 3.905V15.095C0.997898 15.2119 1.01896 15.328 1.06186 15.4367C1.10476 15.5455 1.16866 15.6447 1.24992 15.7288C1.33117 15.8128 1.42818 15.88 1.53542 15.9265C1.64265 15.9731 1.758 15.998 1.87488 16H16.1249C16.2418 15.998 16.3571 15.9731 16.4644 15.9265C16.5716 15.88 16.6686 15.8128 16.7499 15.7288C16.8311 15.6447 16.895 15.5455 16.9379 15.4367C16.9808 15.328 17.0019 15.2119 16.9999 15.095V6.17C16.4019 6.54953 15.7081 6.75073 14.9999 6.75ZM4.99988 13H3.99988V12H4.99988V13ZM4.99988 10.5H3.99988V9.5H4.99988V10.5ZM4.99988 8H3.99988V7H4.99988V8ZM7.99988 13H6.99988V12H7.99988V13ZM7.99988 10.5H6.99988V9.5H7.99988V10.5ZM7.99988 8H6.99988V7H7.99988V8ZM10.9999 13H9.99988V12H10.9999V13ZM10.9999 10.5H9.99988V9.5H10.9999V10.5ZM10.9999 8H9.99988V7H10.9999V8ZM13.9999 13H12.9999V12H13.9999V13ZM13.9999 10.5H12.9999V9.5H13.9999V10.5ZM13.9999 8H12.9999V7H13.9999V8Z" fill="#44424B"/>
<path d="M15 5.5C16.3807 5.5 17.5 4.38071 17.5 3C17.5 1.61929 16.3807 0.5 15 0.5C13.6193 0.5 12.5 1.61929 12.5 3C12.5 4.38071 13.6193 5.5 15 5.5Z" fill="#44424B"/>
</svg>
