<svg width="24" height="24" viewBox="0 0 24 24" fill="none" xmlns="http://www.w3.org/2000/svg">
<path d="M7 18C8.1 18 9 18.9 9 20C9 21.1 8.1 22 7 22C5.9 22 5 21.1 5 20C5 18.9 5.9 18 7 18ZM17 18C18.1 18 19 18.9 19 20C19 21.1 18.1 22 17 22C15.9 22 15 21.1 15 20C15 18.9 15.9 18 17 18ZM8.59961 11H15.5996L19.5 4L21.2002 5L17.2998 12C16.9998 12.6 16.2996 13 15.5996 13H8.09961L7.2002 14.5996V14.7998C7.2002 14.8998 7.30039 15 7.40039 15H19V17H7C5.9 17 5 16.1 5 15C5 14.6 5.1002 14.3 5.2002 14L6.5 11.5996L3 4H1V2H4.2998L8.59961 11ZM11.6006 1.2002C11.88 1.20023 12.1542 1.274 12.3965 1.41309L12.3975 1.41211L15.1973 3.0127L15.2012 3.01465L15.375 3.13086C15.5409 3.25817 15.6808 3.41741 15.7861 3.59961C15.9265 3.84245 16.0007 4.11796 16.001 4.39844V7.60059C16.0007 7.88107 15.9264 8.15655 15.7861 8.39941C15.6458 8.64219 15.444 8.84409 15.2012 8.98438L15.1973 8.98633L12.3975 10.5869L12.3965 10.5859C12.1865 10.7065 11.9525 10.7742 11.7119 10.791C11.6755 10.7961 11.6384 10.7998 11.6006 10.7998C11.5628 10.7998 11.5256 10.7961 11.4893 10.791C11.2483 10.7742 11.0139 10.7067 10.8037 10.5859V10.5869L8.00293 8.98633L8 8.98438C7.75706 8.84408 7.55543 8.64229 7.41504 8.39941C7.27465 8.15651 7.20049 7.88114 7.2002 7.60059V4.39844L7.21387 4.18945C7.24141 3.98221 7.30973 3.78179 7.41504 3.59961C7.55545 3.35672 7.75704 3.15494 8 3.01465L8.00293 3.0127L10.8037 1.41211V1.41309C11.0462 1.27381 11.3209 1.2002 11.6006 1.2002ZM8.7998 7.59863L10.8008 8.74121V6.46191L8.7998 5.3125V7.59863ZM13.8271 5.64258C13.8169 5.64903 13.8064 5.65517 13.7959 5.66113L12.4004 6.46191V8.74121L14.4004 7.59863V5.31348L13.8271 5.64258ZM9.61328 3.93457L11.6006 5.0752L11.79 4.9668L9.80078 3.82812L9.61328 3.93457ZM11.5977 2.80176L11.4121 2.90723L13.3984 4.04395L13.5869 3.93555L11.6035 2.80176L11.6006 2.7998L11.5977 2.80176Z" fill="#44424B"/>
</svg>
