<svg width="24" height="24" viewBox="0 0 24 24" fill="none" xmlns="http://www.w3.org/2000/svg">
<path d="M21 12.022C20.5228 11.7168 20.0078 11.4752 19.468 11.3035C19.1165 7.48801 15.907 4.50001 12 4.50001C10.031 4.50001 8.24 5.25801 6.901 6.50001H8.75C8.94891 6.50001 9.13968 6.57902 9.28033 6.71968C9.42098 6.86033 9.5 7.0511 9.5 7.25001C9.5 7.44892 9.42098 7.63969 9.28033 7.78034C9.13968 7.92099 8.94891 8.00001 8.75 8.00001H5.25C5.05109 8.00001 4.86032 7.92099 4.71967 7.78034C4.57902 7.63969 4.5 7.44892 4.5 7.25001V3.75001C4.5 3.55109 4.57902 3.36033 4.71967 3.21968C4.86032 3.07902 5.05109 3.00001 5.25 3.00001C5.44891 3.00001 5.63968 3.07902 5.78033 3.21968C5.92098 3.36033 6 3.55109 6 3.75001V5.29201C7.64854 3.81361 9.78566 2.99723 12 3.00001C16.9705 3.00001 21 7.02951 21 12V12.022ZM12 21H12.022C11.7168 20.5228 11.4752 20.0078 11.3035 19.468C7.488 19.1165 4.5 15.907 4.5 12C4.50067 11.6127 4.52917 11.2335 4.5855 10.8625C4.61401 10.6665 4.56379 10.4671 4.44581 10.3079C4.32783 10.1488 4.15167 10.0428 3.95581 10.0131C3.75994 9.98336 3.56027 10.0323 3.40039 10.1493C3.24052 10.2663 3.13343 10.4418 3.1025 10.6375C3.0345 11.0825 3.00033 11.5367 3 12C3 16.9705 7.0295 21 12 21ZM12 17.5C12 14.4625 14.4625 12 17.5 12C20.5375 12 23 14.4625 23 17.5C23 20.5375 20.5375 23 17.5 23C14.4625 23 12 20.5375 12 17.5ZM17 20.5C17 20.6326 17.0527 20.7598 17.1464 20.8536C17.2402 20.9473 17.3674 21 17.5 21C17.6326 21 17.7598 20.9473 17.8536 20.8536C17.9473 20.7598 18 20.6326 18 20.5V16.5C18 16.3674 17.9473 16.2402 17.8536 16.1465C17.7598 16.0527 17.6326 16 17.5 16C17.3674 16 17.2402 16.0527 17.1464 16.1465C17.0527 16.2402 17 16.3674 17 16.5V20.5ZM17.5 13.875C17.3342 13.875 17.1753 13.9409 17.0581 14.0581C16.9408 14.1753 16.875 14.3342 16.875 14.5C16.875 14.6658 16.9408 14.8247 17.0581 14.9419C17.1753 15.0592 17.3342 15.125 17.5 15.125C17.6658 15.125 17.8247 15.0592 17.9419 14.9419C18.0592 14.8247 18.125 14.6658 18.125 14.5C18.125 14.3342 18.0592 14.1753 17.9419 14.0581C17.8247 13.9409 17.6658 13.875 17.5 13.875Z" fill="#44424B"/>
</svg>
