<svg width="24" height="24" viewBox="0 0 24 24" fill="none" xmlns="http://www.w3.org/2000/svg">
<path d="M11.75 20.5499V12.6591M14.5293 3.19896C14.7477 3.07686 14.9937 3.01276 15.2439 3.01276C15.494 3.01276 15.7401 3.07686 15.9584 3.19896L19.6408 5.26809C19.9016 5.41557 20.1185 5.62963 20.2695 5.88842C20.4205 6.14721 20.5 6.44144 20.5 6.74104C20.5 7.04064 20.4205 7.33487 20.2695 7.59366C20.1185 7.85245 19.9016 8.06651 19.6408 8.21399L8.96192 14.2285C8.74277 14.353 8.49504 14.4185 8.24299 14.4185C7.99093 14.4185 7.7432 14.353 7.52405 14.2285L3.85922 12.1594C3.59843 12.0119 3.38146 11.7978 3.2305 11.539C3.07954 11.2803 3 10.986 3 10.6864C3 10.3868 3.07954 10.0926 3.2305 9.83381C3.38146 9.57503 3.59843 9.36096 3.85922 9.21348L14.5293 3.19896Z" stroke="#44424B" stroke-width="2" stroke-linecap="round" stroke-linejoin="round"/>
<path d="M18.7639 12.6591V16.0521C18.7642 16.383 18.6737 16.7077 18.502 16.9906C18.3304 17.2736 18.0843 17.5039 17.7907 17.6566L12.5302 20.357C12.2891 20.4822 12.0215 20.5476 11.7499 20.5476C11.4782 20.5476 11.2106 20.4822 10.9696 20.357L5.70904 17.6566C5.4154 17.5039 5.16933 17.2736 4.99771 16.9906C4.82608 16.7077 4.7355 16.383 4.73584 16.0521V12.6591" stroke="#44424B" stroke-width="2" stroke-linecap="round" stroke-linejoin="round"/>
<path d="M19.6408 12.1593C19.9016 12.0118 20.1185 11.7978 20.2695 11.539C20.4205 11.2802 20.5 10.986 20.5 10.6864C20.5 10.3868 20.4205 10.0925 20.2695 9.83374C20.1185 9.57495 19.9016 9.36089 19.6408 9.21341L8.97069 3.19012C8.75315 3.06554 8.50682 3 8.25614 3C8.00545 3 7.75912 3.06554 7.54158 3.19012L3.85922 5.26802C3.59843 5.4155 3.38146 5.62956 3.2305 5.88835C3.07954 6.14714 3 6.44137 3 6.74097C3 7.04057 3.07954 7.3348 3.2305 7.59359C3.38146 7.85238 3.59843 8.06644 3.85922 8.21392L14.5381 14.2284C14.7556 14.353 15.0019 14.4186 15.2526 14.4186C15.5033 14.4186 15.7496 14.353 15.9672 14.2284L19.6408 12.1593Z" stroke="#44424B" stroke-width="2" stroke-linecap="round" stroke-linejoin="round"/>
</svg>
