<svg width="24" height="24" viewBox="0 0 24 24" fill="none" xmlns="http://www.w3.org/2000/svg">
<path d="M11.2616 2.00028C11.3943 1.99729 11.5283 2.0185 11.6558 2.06295L11.6569 2.0619C14.014 2.83313 16.3719 3.60402 18.7292 4.37333L18.8372 4.41511C18.9452 4.4636 19.0507 4.53386 19.1332 4.63863C19.2455 4.78134 19.2833 4.9468 19.2833 5.10447V5.10656C19.2788 5.69831 19.2844 6.34141 19.279 6.94588C19.9525 7.21402 20.6212 7.49112 21.2869 7.76893C21.3918 7.81053 21.4899 7.86742 21.5785 7.93814L21.666 8.01543L21.6724 8.0217L21.6778 8.02797C22.42 8.83593 23.1617 9.64549 23.9028 10.4543L24 10.5608V11.1541L23.8315 11.2659C23.7677 11.3081 23.7295 11.3382 23.6447 11.3975C23.5729 11.4475 23.4822 11.5058 23.3768 11.5531L23.3779 11.5541C22.8664 11.7837 22.3469 12.0081 21.8204 12.2184C21.8296 13.8693 21.8181 15.4624 21.829 17.1076V17.1097C21.829 17.2912 21.7938 17.4767 21.6811 17.6434C21.5692 17.8087 21.4084 17.9141 21.2404 17.9892L21.2393 17.9902C19.805 18.6264 18.3718 19.2655 16.9406 19.9079L12.6506 21.8443C12.4441 21.9379 12.2342 21.9982 12.0079 22C11.8375 22.0013 11.6752 21.9692 11.5154 21.9122L11.3566 21.8475C8.5056 20.5552 5.6485 19.2733 2.78733 18.0007C2.60342 17.9188 2.43403 17.8054 2.31857 17.6288C2.20352 17.4528 2.17171 17.2591 2.17168 17.0732V17.07C2.18259 15.4454 2.17409 13.846 2.18248 12.2163C1.62665 11.9911 1.07585 11.7469 0.537529 11.5134C0.326252 11.4223 0.0867524 11.2642 0.018013 10.987C-0.0519417 10.7041 0.094073 10.4597 0.245909 10.2924L0.246989 10.2914C0.943393 9.52837 1.64317 8.76688 2.34557 8.00812L2.35206 8.00081L2.35962 7.9935C2.45688 7.8993 2.57389 7.82603 2.70092 7.77625C3.25002 7.54692 3.80257 7.31692 4.35883 7.09525C4.35629 6.77894 4.35673 6.4625 4.35667 6.1479C4.35661 5.80163 4.35645 5.45665 4.35343 5.11282C4.35215 4.96484 4.38423 4.8073 4.48196 4.66683C4.57975 4.52665 4.71798 4.4382 4.86107 4.38378C6.86199 3.6212 8.86197 2.85634 10.8587 2.08592C10.9857 2.03323 11.1229 2.00348 11.2616 2.00028ZM3.67731 16.8152C6.19502 17.9454 8.71442 19.0746 11.2346 20.2035L11.2368 13.734L10.1405 14.9079C10.0232 15.0334 9.85862 15.2069 9.61988 15.2558C9.38179 15.3042 9.15808 15.2099 8.99452 15.1398L3.68055 12.8608C3.68098 14.1778 3.68386 15.497 3.67731 16.8152ZM14.9598 15.1607C14.8099 15.2249 14.6084 15.3017 14.3884 15.2589C14.1648 15.2151 14.0124 15.0659 13.9045 14.9508L12.8893 13.8656C12.8479 13.8214 12.8066 13.7771 12.7651 13.7329V20.2035C15.2832 19.0736 17.8031 17.9455 20.3234 16.8204C20.3199 15.5129 20.3213 14.2042 20.3213 12.8973V12.866C18.5346 13.6313 16.7473 14.3968 14.9598 15.1607ZM18.1708 10.3039C17.2641 10.6434 16.3569 10.9828 15.4501 11.3223C14.7316 11.5908 14.0126 11.8609 13.277 12.1369C13.7712 12.6617 14.2586 13.1775 14.7351 13.6995C16.8159 12.8065 18.8969 11.9133 20.9769 11.0204L21.5212 10.7875C21.6862 10.7163 21.852 10.6437 22.0191 10.5713C21.6322 10.1505 21.2385 9.72693 20.8548 9.29805C19.9603 9.63295 19.0654 9.96897 18.1708 10.3039ZM1.98267 10.5671L5.57068 12.1056C6.80057 12.6368 8.03378 13.164 9.26778 13.687C9.75178 13.1788 10.2317 12.6655 10.7248 12.139C10.693 12.1274 10.6605 12.1171 10.6298 12.1056C8.1345 11.1718 5.64138 10.2339 3.15023 9.29492C2.76476 9.72349 2.37281 10.146 1.98267 10.5671ZM11.6612 7.95381V10.658C11.6612 10.7848 11.6621 10.8646 11.6666 10.9243C11.6672 10.9324 11.6671 10.9401 11.6677 10.9462C11.6899 10.9571 11.7252 10.975 11.7854 10.9974L11.9701 11.0632L11.9788 11.0664C11.9893 11.0703 12.0003 11.0697 12.0101 11.0684C12.4834 10.9014 12.9548 10.7258 13.4239 10.5441C13.4276 9.50472 13.4282 8.46376 13.4282 7.40546C12.843 7.58927 12.2529 7.77588 11.6612 7.95381ZM5.85582 8.78312L10.161 10.3948C10.1616 9.55633 10.1639 8.7348 10.1567 7.91412C9.25967 7.54025 8.35912 7.17433 7.45649 6.80488L5.85582 6.1479V8.78312ZM14.9274 6.93753V9.98427C15.8867 9.62629 16.8341 9.27436 17.7777 8.91682C17.781 7.9683 17.7818 7.01838 17.782 6.04972C16.8326 6.3463 15.881 6.64562 14.9274 6.93753ZM8.06457 4.72114C8.02184 4.72014 7.9678 4.72692 7.8896 4.75979L7.89068 4.76083C7.62096 4.87579 7.34489 4.9834 7.06442 5.08985C8.37756 5.62537 9.65701 6.14831 10.9365 6.66596C10.9489 6.66901 10.9631 6.67002 10.9754 6.66596L10.9883 6.66074C11.3466 6.55667 11.6988 6.44473 12.0609 6.33173L8.25791 4.77128C8.16897 4.73419 8.10976 4.72227 8.06457 4.72114ZM11.28 3.46672L11.2735 3.46986L10.0227 3.9451C11.4082 4.51291 12.7944 5.07898 14.1821 5.64029C14.2072 5.64829 14.2346 5.6495 14.2588 5.64237C14.8971 5.44939 15.5331 5.24885 16.1705 5.05016C14.5522 4.51869 12.9329 3.98916 11.3124 3.46359C11.3019 3.46205 11.2902 3.46272 11.28 3.46672Z" fill="#44424B"/>
</svg>
