<svg width="24" height="24" viewBox="0 0 24 24" fill="none" xmlns="http://www.w3.org/2000/svg">
<path fill-rule="evenodd" clip-rule="evenodd" d="M4.3045 18.4935C2.66 16.689 1.66 14.307 1.66 11.695C1.66 6.063 6.3085 1.4975 12.0425 1.4975C17.7765 1.4975 22.425 6.0635 22.425 11.695C22.425 15.6775 20.1 19.125 16.7115 20.804C14.5656 21.9206 12.1815 22.5016 9.7625 22.4975C6.6865 22.4975 3.8285 21.578 1.4585 20.004C1.4585 20.004 3.048 19.8305 4.3035 18.493L4.3045 18.4935ZM16.9195 16.7425C19.606 14.057 19.606 9.7025 16.9195 7.016C15.7249 5.81779 14.129 5.10411 12.4395 5.0125C12.3905 3.789 13.049 2.963 13.052 2.959C11.1133 3.33248 9.33159 4.27946 7.938 5.678C6.86132 6.75099 6.04759 8.05861 5.5605 9.4985C5.6295 9.31516 5.70666 9.1345 5.792 8.9565C5.69433 9.2065 5.6055 9.46183 5.5255 9.7225C4.739 12.1105 5.294 14.8435 7.193 16.7425C9.879 19.4285 14.2335 19.4285 16.9195 16.7425Z" fill="#44424B"/>
<path fill-rule="evenodd" clip-rule="evenodd" d="M8.565 11.1725V12.596C8.565 12.8688 8.67336 13.1304 8.86624 13.3233C9.05912 13.5161 9.32072 13.6245 9.5935 13.6245C9.86627 13.6245 10.1279 13.5161 10.3208 13.3233C10.5136 13.1304 10.622 12.8688 10.622 12.596V11.1725C10.622 10.8997 10.5136 10.6381 10.3208 10.4452C10.1279 10.2524 9.86627 10.144 9.5935 10.144C9.32072 10.144 9.05912 10.2524 8.86624 10.4452C8.67336 10.6381 8.565 10.8997 8.565 11.1725ZM13.6565 11.1725V12.596C13.6565 12.8688 13.7649 13.1304 13.9577 13.3233C14.1506 13.5161 14.4122 13.6245 14.685 13.6245C14.9578 13.6245 15.2194 13.5161 15.4123 13.3233C15.6051 13.1304 15.7135 12.8688 15.7135 12.596V11.1725C15.7135 10.8997 15.6051 10.6381 15.4123 10.4452C15.2194 10.2524 14.9578 10.144 14.685 10.144C14.4122 10.144 14.1506 10.2524 13.9577 10.4452C13.7649 10.6381 13.6565 10.8997 13.6565 11.1725Z" fill="#44424B"/>
</svg>
