<svg width="24" height="24" viewBox="0 0 24 24" fill="none" xmlns="http://www.w3.org/2000/svg">
<path fill-rule="evenodd" clip-rule="evenodd" d="M14.635 6.86777V4.77077C15.3687 5.15531 15.9883 5.72619 16.4316 6.42604C16.8748 7.12589 17.126 7.93007 17.16 8.75777H17.767C18.0381 8.75777 18.298 8.86544 18.4897 9.0571C18.6813 9.24877 18.789 9.50872 18.789 9.77977C18.789 10.0508 18.6813 10.3108 18.4897 10.5024C18.298 10.6941 18.0381 10.8018 17.767 10.8018H7.022C6.75095 10.8018 6.491 10.6941 6.29934 10.5024C6.10767 10.3108 6 10.0508 6 9.77977C6 9.50872 6.10767 9.24877 6.29934 9.0571C6.491 8.86544 6.75095 8.75777 7.022 8.75777H7.63C7.767 6.72277 9.166 4.98777 11.06 4.42177V4.01777C11.0611 3.7549 11.1634 3.50257 11.3457 3.31319C11.528 3.12382 11.7763 3.01198 12.0389 3.00091C12.3016 2.98984 12.5584 3.08039 12.756 3.25374C12.9536 3.4271 13.0768 3.66993 13.1 3.93177V6.86777C13.1 7.07119 13.1808 7.26628 13.3246 7.41012C13.4685 7.55396 13.6636 7.63477 13.867 7.63477C14.0704 7.63477 14.2655 7.55396 14.4094 7.41012C14.5532 7.26628 14.635 7.07119 14.635 6.86777ZM12.491 16.8058C15.324 16.8058 17.766 18.6618 18.645 21.2008H6.241C7.12 18.6618 9.659 16.8058 12.491 16.8058ZM7.538 11.9958C8.115 14.1488 10.055 15.7838 12.394 15.7838C14.775 15.7838 16.73 14.1918 17.271 11.9968H15.12C14.661 13.0368 13.63 13.7388 12.395 13.7388C11.229 13.7388 10.195 13.0268 9.707 11.9968L7.538 11.9958Z" fill="#44424B"/>
</svg>
